<svg xmlns="http://www.w3.org/2000/svg" viewBox="0 0 1297.91 642"><defs><style>.cls-1{fill:#2f3a5e;}.cls-2{fill:#28314f;}.cls-3{fill:#222942;}.cls-4{fill:#2b3554;}.cls-5{fill:#ba4f43;}.cls-6{fill:#1a1a1a;}.cls-7{fill:#f26657;}.cls-8{fill:#f8b2ab;}.cls-9{fill:#d45a4c;}.cls-10{fill:#00a0af;}.cls-11{fill:#00919e;}.cls-12{fill:#c9e3ed;}.cls-13{fill:#fff;}</style></defs><title>Asset 3</title><g id="Layer_2" data-name="Layer 2"><g id="Ship_Planet" data-name="Ship &amp; Planet"><g id="Planet"><path class="cls-1" d="M1297.91,642C956.93,402.86,541.61,262.5,93.5,262.5q-47,0-93.5,2.06V642Z"/><path class="cls-2" d="M548.93,448.18c75,12,138.05,7.71,140.83-9.63a7.94,7.94,0,0,0,0-2.66c-4.49-10.87-25.83-23-56.88-33.36A511.9,511.9,0,0,0,559,385.39a531.17,531.17,0,0,0-66.08-6.61c-40-.83-69.05,4.93-74.73,16.16,0,0,0,.05,0,.08C415.39,412.36,473.93,436.16,548.93,448.18Z"/><path class="cls-3" d="M549,434c62.91,10.54,116.13,9.14,118.86-3.12a4.67,4.67,0,0,0,0-1.9c-3.53-7.85-21.24-17.05-47.17-25.24a500.52,500.52,0,0,0-61.82-14.15,528.08,528.08,0,0,0-55.53-6.46c-33.68-1.64-58.29,1.68-63.32,9.52,0,0,0,0,0,.06C437.31,405,486.1,423.46,549,434Z"/><ellipse class="cls-2" cx="152.14" cy="586.55" rx="94.86" ry="21.93"/><ellipse class="cls-3" cx="152.14" cy="584.41" rx="73.86" ry="17.08"/><path class="cls-1" d="M1007.1,471.11s24.4-3.61,27.4-7.61,166,80,188,97c0,0-7,14.7-3,29C1219.5,589.5,1084.69,561.73,1007.1,471.11Z"/><path class="cls-2" d="M1013.39,478.19c6.94,6.25,14.1,12.23,21.4,18s14.73,11.42,22.28,16.86,15.23,10.7,23.06,15.71,15.71,10,23.81,14.52,16.23,9.07,24.57,13.18,16.74,8.07,25.32,11.67c4.25,1.89,8.62,3.47,12.92,5.24l6.55,2.42,3.28,1.21,3.3,1.11,6.62,2.26,6.68,2.07,3.34,1,3.37.94,6.73,1.92-6.88-1.34-3.44-.69-3.41-.8-6.83-1.65-6.77-1.87-3.38-1-3.34-1.06-6.7-2.13-6.63-2.35-3.31-1.19-3.27-1.28c-2.19-.85-4.38-1.68-6.55-2.56l-6.47-2.76c-2.17-.9-4.29-1.91-6.42-2.87s-4.28-1.92-6.38-3l-6.31-3.11-6.24-3.24c-2.09-1.07-4.15-2.2-6.2-3.34S1104,548,1102,546.77a426.92,426.92,0,0,1-46.74-31.2q-11.16-8.55-21.67-17.86C1026.56,491.47,1019.71,485.08,1013.39,478.19Z"/></g><path id="Shadow" class="cls-4" d="M276.86,297.88c-9.56,2.07-16,2.56-28.43,6.34S191.5,328,188,322c-9-14,24-18,31-33,1.5-2.5-1.75-7.25-2.88-10.13S213,274,211,275c-2.89,1.43-5.78,3.1-8.66,4.48-.22.1-23.09.45-23.33.49-24.88,4.3-29,8-49.92,22.48l-.15.1c-2.72,1.64-5.4,3.34-8,5.07l-.16.11C108.94,317,96,321,82,324a8.7,8.7,0,0,0,1-2c1-2,2.18-5,3-6,10-12,9.63-9.16,19-16,0,0,.86-4.14-1.33-4.14,0,0-1.42.07-1.67.14-10.91,3.16-19,3-37.14,14.46C51.1,319.16,41,337,28,344c0,0-13.45,5.75-15.7,6.75-4,1.75-8.07,3.61-12.3,5.56v43.22L5,398c10-3,22-5,49-13l78-21c37-11,52-15,87-28,3.16-1.17,41-19,60-33.73C281.12,300.66,279.43,297.33,276.86,297.88Z"/><g id="Ship"><path class="cls-5" d="M139.36,208.56S108,223.46,99,251.55a83.1,83.1,0,0,0-.74,47.94,3.16,3.16,0,0,0,3,2.24h0a5.46,5.46,0,0,0,5.11-3.55c4.06-10.71,18.21-42,45.31-42"/><path class="cls-5" d="M239.42,208.56s31.33,14.9,40.39,43a83,83,0,0,1,.74,47.94,3.15,3.15,0,0,1-3,2.24h0a5.47,5.47,0,0,1-5.12-3.55c-4.05-10.71-18.21-42-45.3-42"/><path class="cls-6" d="M219.17,272.66s3.13,9.7-.39,15.87-20.25,7.92-29.05,7.92h-1c-8.8,0-25.53-1.76-29-7.92s-.39-15.87-.39-15.87"/><path class="cls-7" d="M189.2,284.56c22.89,0,26.41-6.16,26.41-6.16S242,241.43,242,166.6c0-62.42-36.75-140.15-48.94-164.22a4.35,4.35,0,0,0-7.75,0c-12.2,24.07-49,101.8-49,164.22,0,74.83,26.41,111.8,26.41,111.8S166.31,284.56,189.2,284.56Z"/><path class="cls-8" d="M201,18.68c-.18-.38-7.64,1.34-12.27,1.34a54.71,54.71,0,0,1-11.42-1.18S165.17,46.2,162.88,52.48c0,0,9.16,7.16,25.88,7.16s26.76-7.16,26.76-7.16S203.73,24.42,201,18.68Z"/><circle class="cls-9" cx="188.7" cy="111.7" r="24.3"/><circle class="cls-10" cx="188.76" cy="110.7" r="22.89"/><circle class="cls-11" cx="189.23" cy="110.23" r="17.77"/><path class="cls-12" d="M188.76,94a16.72,16.72,0,0,0-10,30.12l14.34-29.53A16.85,16.85,0,0,0,188.76,94Z"/><path class="cls-13" d="M193.11,94.56l-14.34,29.53a16.71,16.71,0,1,0,14.34-29.53Z"/><path class="cls-5" d="M189.2,325.5h0a5.4,5.4,0,0,0,5.3-4.34c2.07-10.5,7-38.19,7-62.57a137.27,137.27,0,0,0-12.33-55.46h-.44a137.36,137.36,0,0,0-12.32,55.46c0,24.38,5,52.07,7,62.57a5.4,5.4,0,0,0,5.29,4.34h.44Z"/></g></g></g></svg>