<svg xmlns="http://www.w3.org/2000/svg" xmlns:xlink="http://www.w3.org/1999/xlink" viewBox="0 0 416.23 755.64"><defs><style>.cls-1,.cls-10,.cls-26,.cls-27,.cls-31,.cls-7{fill:none;}.cls-2{fill:#6c86a1;}.cls-3{fill:#bdc9d4;}.cls-4{fill:#e6e7e8;}.cls-5{fill:#91a4b8;}.cls-6{fill:#f26657;}.cls-27,.cls-7{stroke:#98aabd;}.cls-10,.cls-26,.cls-31,.cls-7{stroke-miterlimit:10;}.cls-7{stroke-width:3px;}.cls-8{fill:#28314f;}.cls-9{fill:#1a2033;}.cls-10{stroke:#929497;stroke-width:0.82px;}.cls-11{fill:#b8c8ff;}.cls-12{fill:#f1f1f2;}.cls-13{fill:#98aabd;}.cls-14{fill:#c4cfd9;}.cls-15{fill:#ba4f43;}.cls-16,.cls-17{opacity:0.38;}.cls-16{fill:url(#linear-gradient);}.cls-17{fill:url(#linear-gradient-2);}.cls-18{fill:#fff;}.cls-19{fill:#5aa2a8;}.cls-20{fill:#49828c;}.cls-21{fill:#54999e;}.cls-22{fill:#62acba;}.cls-23{fill:#66afc0;}.cls-24{fill:#487f8a;}.cls-25{fill:#262829;}.cls-26{stroke:#c4cfd9;stroke-width:5px;}.cls-26,.cls-27,.cls-31{stroke-linecap:round;}.cls-27{stroke-linejoin:round;stroke-width:10px;}.cls-28{fill:#474849;}.cls-29{fill:#c7d1da;}.cls-30{clip-path:url(#clip-path);}.cls-31{stroke:#676869;stroke-width:1.5px;}.cls-32{clip-path:url(#clip-path-2);}.cls-33{opacity:0.34;}</style><linearGradient id="linear-gradient" x1="357.08" y1="288.62" x2="330.27" y2="41.94" gradientUnits="userSpaceOnUse"><stop offset="0" stop-color="#fff" stop-opacity="0"/><stop offset="1" stop-color="#fff"/></linearGradient><linearGradient id="linear-gradient-2" x1="585.7" y1="268.32" x2="616.05" y2="44.45" gradientTransform="matrix(-1, 0, 0, 1, 711.35, 0)" xlink:href="#linear-gradient"/><clipPath id="clip-path"><path class="cls-1" d="M134.41,375.35c-4-.25-10.14.47-17.32.27-10.28-.28-5.43,0-8.56-.83h0c-1.62-4.73-2.93-13.6-5.15-16,0,0-7.32,2.7-25,3.92-11.86.81-28.81,2.56-30.71,6.54-4.14,8.69-.85,33.81,0,45.4.77,10,9.47,12.28,17.54,17.42,3,1.88,9.43,3.59,12,3.64,4.69.08,10.57-.44,21,.32,5.43,3,17.48-.51,26.35-1.3,7.12-.64,12.18-8.33,10.89-12.8,0,0,2.4-1.36,2.87-7.65a6.8,6.8,0,0,0-4.15-7s4.15-2,4.21-8.43c0-4.89-4.09-6-6.77-6.72,0,0,9.05-2.59,9.49-9.46C141.46,378,138.33,375.59,134.41,375.35Z"/></clipPath><clipPath id="clip-path-2"><path class="cls-1" d="M395.6,432.67c-5.52,2.81-17.44.26-26.28-.8-7.09-.86-11.94-10-10.51-14.42,0,0-2.36-1.43-2.64-7.74a6.78,6.78,0,0,1,4.37-6.87s-4.1-2.13-4-8.56c.11-4.89,4.28-5.92,7-6.51,0,0-9-2.87-9.2-9.74-.15-4.69,3-7,7-7.08s10.13.78,17.31.8c10.28,0,8.7-1,11.85-1.73h0c-.06-2.31,2.18-7.34,2.41-9,0,0,14.55,6.53,16,20.83"/></clipPath></defs><title>Asset 2</title><g id="Layer_2" data-name="Layer 2"><g id="Astraunaut"><path class="cls-2" d="M110.66,101.89s-1,7.31-21.37,23.83-20.56,32.82-15.77,46.94c6.44,19,22.09,22.71,24.93,42.09l5.53,3.18,10.79-5.12a71.54,71.54,0,0,0-10.79-23c-4.91-6.71-16.92-16.46-16.92-33s25.27-25.18,27.65-35.49S110.66,101.89,110.66,101.89Z"/><rect class="cls-3" x="106.35" y="169.52" width="226.26" height="70.89" rx="20"/><path class="cls-4" d="M400.27,336.63c-6.38-33.45-22-100-69.81-126.87-12.3-3.61-73.59-18.47-99.23-24.65v-.47h-1.95l-9.35-2.25h0v2.25h-.5v-2.25h0c-1.13.27-95,22.81-110.54,27.37C58.63,230.29,41.9,285.93,23.59,314.64-5.69,360.55,82,414.53,100.23,334.82c11.52,81.31,14.29,87.19,4,144.39,0,0-26.17,139.15-24.12,276.43h107C189.7,721.28,202.9,553,219.56,553v-.36h.2V553c16.66,0,29.86,168.28,32.38,202.64h107c2.05-137.28-24.12-276.43-24.12-276.43C324.8,422,363.55,417.45,377.28,434,418.63,428.73,408.91,381.89,400.27,336.63Z"/><rect class="cls-5" x="114.71" y="181.07" width="211.42" height="7.86" rx="3.93"/><rect class="cls-3" x="92.58" y="29.25" width="253.41" height="61.11" rx="20"/><path class="cls-6" d="M339.09,334.82s-36.3,10.53-36.3-37.52,27.67-87.54,27.67-87.54L324.15,208s-28.51,41.22-28.51,89.27,43.45,37.52,43.45,37.52"/><path class="cls-6" d="M339.09,503s-47.23,14.73-106.78,80.62l1.34,6.79c59.56-65.89,106.41-81.25,106.41-81.25Z"/><path class="cls-7" d="M359.21,727.16s-31.75,11.69-108.36,11.69"/><path class="cls-4" d="M220,252.39c-57.46,0-97.42-23.79-97.42-49.59,8.24-15.35,6.94-18.12-.58-57.91H316c-6.11,36.74-6.8,40.18.58,57.91C316.55,228.6,277.45,252.39,220,252.39Z"/><path class="cls-3" d="M218.9,207.56c-50.79,0-92.51-27.93-97.14-63.61a51.52,51.52,0,0,0-.42,6.6c0,38.77,43.68,74.62,97.56,74.62s97.56-35.85,97.56-74.62A51.52,51.52,0,0,0,316,144C311.41,179.63,269.69,207.56,218.9,207.56Z"/><path class="cls-3" d="M219.48,248.66c-50.76,0-92.45-21.65-97.07-45.36a23.09,23.09,0,0,0-.43,4.39c0,25.77,43.65,49.58,97.5,49.58S317,233.46,317,207.69a22.3,22.3,0,0,0-.43-4.39C311.94,227,270.24,248.66,219.48,248.66Z"/><circle class="cls-4" cx="219.4" cy="108.97" r="108.97"/><path class="cls-8" d="M310.91,112.26c0,51.11-40.9,73.5-92,73.5s-91-22.39-91-73.5S168.54,57,219.65,57,310.91,61.15,310.91,112.26Z"/><path class="cls-9" d="M172.78,112.26c0-43.34,29.24-52.91,69.3-54.82-7.16-.34-14.67-.44-22.43-.44-51.11,0-91.76,4.15-91.76,55.26s39.9,73.5,91,73.5a154.45,154.45,0,0,0,22.48-1.57C201.48,178.3,172.78,155.6,172.78,112.26Z"/><path class="cls-6" d="M100.23,334.82s36.29,10.53,36.29-37.52-27.67-87.54-27.67-87.54l6.32-1.73s28.51,41.22,28.51,89.27-43.45,37.52-43.45,37.52"/><polygon class="cls-6" points="170.38 250.18 141.18 271.92 142.44 279.59 178.31 252.39 170.38 250.18"/><polygon class="cls-6" points="268.11 250.18 297.31 271.92 296.05 279.59 260.18 252.39 268.11 250.18"/><line class="cls-10" x1="110.43" y1="416.54" x2="218.9" y2="416.54"/><line class="cls-10" x1="110.43" y1="422.61" x2="218.9" y2="422.61"/><path class="cls-6" d="M207,583.62C147.46,517.73,100.23,503,100.23,503l-1,6.16s46.85,15.36,106.41,81.25Z"/><path class="cls-7" d="M80.11,727.16s31.75,11.69,108.36,11.69"/><path class="cls-11" d="M284.8,77.91a13.62,13.62,0,0,0-5.18-3.35,4.51,4.51,0,0,0-.45-.15s11.34,7.26,11.34,38.75c0,33.37-11.34,43.47-11.34,43.47a27.71,27.71,0,0,0,3-2,23.31,23.31,0,0,0,5.3-5.6c5.53-8.2,10.3-19.78,10.3-35.37C297.73,95.67,291.36,84.56,284.8,77.91Z"/><path class="cls-12" d="M329.46,55.42a8.31,8.31,0,1,1,8.31-8.31A8.32,8.32,0,0,1,329.46,55.42Z"/><path class="cls-13" d="M329.46,40.3a6.81,6.81,0,1,1-6.81,6.81,6.81,6.81,0,0,1,6.81-6.81m0-3a9.81,9.81,0,1,0,9.81,9.81,9.81,9.81,0,0,0-9.81-9.81Z"/><path class="cls-12" d="M109,55.42a8.31,8.31,0,1,1,8.31-8.31A8.32,8.32,0,0,1,109,55.42Z"/><path class="cls-13" d="M109,40.3a6.81,6.81,0,1,1-6.81,6.81A6.82,6.82,0,0,1,109,40.3m0-3a9.81,9.81,0,1,0,9.81,9.81A9.81,9.81,0,0,0,109,37.3Z"/><circle class="cls-12" cx="334.79" cy="76.41" r="4.03"/><path class="cls-13" d="M334.79,73.88a2.53,2.53,0,1,1-2.53,2.53,2.53,2.53,0,0,1,2.53-2.53m0-3a5.53,5.53,0,1,0,5.53,5.53,5.52,5.52,0,0,0-5.53-5.53Z"/><circle class="cls-12" cx="103.98" cy="76.41" r="4.03"/><path class="cls-13" d="M104,73.88a2.53,2.53,0,1,1-2.53,2.53A2.53,2.53,0,0,1,104,73.88m0-3a5.53,5.53,0,1,0,5.53,5.53A5.53,5.53,0,0,0,104,70.88Z"/><path class="cls-14" d="M152.46,401.72v94.8a17.85,17.85,0,0,0,17.85,17.85H269a17.85,17.85,0,0,0,17.84-17.85v-94.8Zm126.48,92.92a13.1,13.1,0,0,1-13.09,13.1H173.47a13.11,13.11,0,0,1-13.1-13.1V408.35H278.94Z"/><path class="cls-15" d="M38.63,286.05s22.62,10.28,33.21,17.35a2.48,2.48,0,0,0,3.6-1c4.11-8.7,18.12-36.68,34.79-51.61a2.93,2.93,0,0,0,.19-4.22c-4.65-4.93-19.29-14.08-29.37-18.07C81.05,228.54,59.57,243.07,38.63,286.05Z"/><path class="cls-16" d="M336.23,46.64l73,216L302.12,288.77,323.23,46.64s.47-6,6.23-6S336.23,46.64,336.23,46.64Z"/><path class="cls-17" d="M102.12,46.64l-40.89,233,130-14-76-219s-1-6-6-6S102.12,46.64,102.12,46.64Z"/><path class="cls-14" d="M154,755.64c-.38-29.11,0-55.64,2.84-104.87a4.12,4.12,0,0,0-4.1-4.11l-70.41-5.14a4.12,4.12,0,0,0-4.11,4.11c-3.84,40.38-5,77.83-1.49,110Z"/><path class="cls-14" d="M286.22,755.64h77.26c3.55-32.18,2.35-69.63-1.49-110a4.12,4.12,0,0,0-4.1-4.11l-70.42,5.14a4.12,4.12,0,0,0-4.1,4.11C286.26,700,286.59,726.53,286.22,755.64Z"/><path class="cls-6" d="M39.63,285.05s21.68,10.28,31.82,17.35a2.34,2.34,0,0,0,3.46-1c3.94-8.7,17.37-36.68,33.34-51.61a3,3,0,0,0,.18-4.22c-4.45-4.93-18.49-14.08-28.14-18.07C80.29,227.54,59.7,242.07,39.63,285.05Z"/><path class="cls-18" d="M80.8,275.07c-1.25.85-2.34,2-3.64,2.74a14.31,14.31,0,0,1-5.61,1.92,8.72,8.72,0,0,1-5.82-1.33,7.58,7.58,0,0,1-1.58-1.08,3.17,3.17,0,0,1-.31-3.93,14.61,14.61,0,0,1,3.5-4.06,103.13,103.13,0,0,1,10.2-7.47c2.87-2,5.72-3.94,8.12-6a10.29,10.29,0,0,0,2.86-3.06c.51-1.11.32-1.56-.9-1.9a6.27,6.27,0,0,0-2.56-.09,26.62,26.62,0,0,0-8,2.36,50.26,50.26,0,0,0-10.71,6.93c-2.58,2.2-5,4.46-7.25,6.55s-3.94,3.84-5.58,5.41a7.09,7.09,0,0,1-1.45,1.16c-1,.51-1.83.44-1.5-.73a5.51,5.51,0,0,1,1.17-2c1.24-1.39,2.62-2.9,4.18-4.39,1.17-1.12,2.37-2.5,3.62-3.86,1.7-1.85,3.46-3.81,5.24-5.75,2.24-2.45,4.23-5,6.08-7.44a3.43,3.43,0,0,0,.77-1.75c.12-1.28-.53-1.81-1.71-1.62a9.64,9.64,0,0,0-4.15,2,39.15,39.15,0,0,0-6.64,7.07c-1.81,2.33-3.57,4.89-5.3,7.39-1.36,2-2.68,3.85-3.94,5.69-1,1.41-1.88,2.78-2.75,4.05-.2.3-.39.57-.58.83-.69,1-1,1.26-.92.91a11.34,11.34,0,0,1,.79-1.4c.7-1.14,1.41-2.2,2.15-3.29,1.16-1.72,2.36-3.41,3.65-5.3,1-1.38,1.92-2.79,2.9-4.19S57,256.79,58,255.42c1.25-1.8,2.53-3.67,3.71-5.43a26.48,26.48,0,0,0,1.57-2.51c-1.89,2.69-3.82,5.37-5.68,7.88-1.53,2.09-2.91,3.9-3.94,5.2-.81,1-1.21,1.46-1.27,1.38s.17-.47.64-1.23c.06-.11.18-.29.11-.2.38-.59.75-1.18,1.12-1.74l.21-.29c.45-.69,1-1.46,1.6-2.31,1.09-1.53,2.25-3.13,3.5-4.77,1.47-1.92,3-3.83,4.12-5.19l.43-.53a8.19,8.19,0,0,0,.58-.9,20.65,20.65,0,0,1,1.64-2.19c.57-.67.65-.66.22,0-.3.48-.6,1-1.09,1.67.28-.19,0,.29-.62,1.38s-1.53,2.49-2.64,4.18a40.86,40.86,0,0,1,2.71-3.25A12.66,12.66,0,0,1,69.57,243a5.11,5.11,0,0,1,4.58.49,3.81,3.81,0,0,1,1.58,4.81,18.58,18.58,0,0,1-2,3.25,19.82,19.82,0,0,0,2.4-1.2A26.71,26.71,0,0,1,85,248.05a15.47,15.47,0,0,1,2.74.09c.72.1,1.4.29,2,.43L92,249.85c0,.06-.05.13,0,.16,1.13,1.05.4,2.84-.73,4.36A32.48,32.48,0,0,1,87,259c-3.9,3.48-8.76,6.81-13.2,10.09A27.44,27.44,0,0,0,68.5,274c-1,1.33-.78,2.58.53,2.88a5,5,0,0,0,2.6,0,20.13,20.13,0,0,0,6.87-3.69A5.68,5.68,0,0,1,80.26,272c1.06-.3,1.54.25,1.48,1.6ZM62.54,248l-1.43,1.74c-1.56,1.93-3.27,4.21-4.86,6.47-.47.66-.94,1.33-1.28,1.87-.65,1-.76,1.27-.18.54.44-.56,1-1.28,1.63-2.14,1.19-1.61,2.43-3.32,3.68-5.05C60.88,250.3,61.62,249.24,62.54,248Z"/><path class="cls-19" d="M364.22,254.63l52,5.57s-13.16,55.3-13.63,64.06l-41,5.57c-.47-8.31-1.36-75.62-1.36-75.62Z"/><path class="cls-20" d="M416.23,260.2l-52-5.57v-9s11.48.08,18.32,1.27,12.4-.51,20.06,3C412.73,254.55,415.56,258.7,416.23,260.2Z"/><path class="cls-21" d="M402.23,445.64c0,5.07.88,10.65.88,13.41s-.88,9.59-.88,9.59l-3,15-36.41-5.1s2.25-12.66,1.3-17.27c-.68-3.35.17-17.12,1-26.67l31.46-10.93c1.18,3.12,3,7.63,4.92,11.83C403,438.86,402.23,440.57,402.23,445.64Z"/><path class="cls-21" d="M361.58,329.83l41-5.57c-.47,8.75-13.14,46.89-13.14,46.89l-.84,3.85c-.07.13-1.41,1.8-3,3.85a48.58,48.58,0,0,1-20.55-1.53c.05-3.83.28-13.06,1.21-17.73C367.5,353.59,362.05,338.12,361.58,329.83Z"/><path class="cls-19" d="M396.55,423.67,365.09,434.6c.29-3.6.57-6.6.77-8.22.66-5.49-.8-47.31-.8-47.31s0-.66,0-1.75a48.58,48.58,0,0,0,20.55,1.53c-2.37,3.07-5.27,7-5.27,7.82,0,1.39,6.34,15.2,6.34,15.2l8.4,17.86S395.65,421.3,396.55,423.67Z"/><path class="cls-22" d="M361.58,329.83c.47,8.29,5.92,23.76,4.71,29.76-.93,4.67-1.16,13.9-1.21,17.73L317.3,397.2h0a101.51,101.51,0,0,1,.41-10.53c.95-5.76-2.11-43.8-2.11-43.8Z"/><path class="cls-23" d="M365.06,379.07s1.46,41.82.8,47.31c-.2,1.62-.48,4.62-.77,8.22l-44.48,16.32c-1.28-9.89-2.91-19.64-2.91-19.64s-.5-20.66-.41-34.08h0l47.78-19.88C365.06,378.41,365.06,379.07,365.06,379.07Z"/><path class="cls-22" d="M320.61,450.92l44.48-16.32c-.8,9.55-1.65,23.32-1,26.67.95,4.61-1.3,17.27-1.3,17.27l-43,15.9S321,477.22,322,469.85C322.39,466.6,321.61,458.72,320.61,450.92Z"/><path class="cls-23" d="M361.58,329.83l-46,13,4.22-64,40.41-24.7S361.11,321.52,361.58,329.83Z"/><path class="cls-21" d="M320.61,450.92c1,7.8,1.78,15.68,1.37,18.93-.94,7.37-2.17,24.59-2.17,24.59s-53.92-19.9-54.88-16.08a1.17,1.17,0,0,1-.09.24l-.14-.06s1.17-39.08-1.17-45.07Z"/><path class="cls-19" d="M320.61,450.92l-57.08-17.45c-2.36-6,0-56.68,0-56.68l53.76,20.41c-.09,13.42.41,34.08.41,34.08S319.33,441,320.61,450.92Z"/><polygon class="cls-19" points="319.81 278.91 315.59 342.87 270.57 325.18 270.57 259.28 319.81 278.91"/><path class="cls-21" d="M315.59,342.87s3.06,38,2.11,43.8a101.51,101.51,0,0,0-.41,10.53l-53.76-20.41,7-51.61Z"/><path class="cls-23" d="M270.57,259.28v65.9l-54.5,15.21c-1.41-1.39,0-54.84,0-54.84C234.79,279.75,252.94,270.84,270.57,259.28Z"/><path class="cls-22" d="M270.57,325.18l-7,51.61-49.81,14.74v-5.3s3.76-44.47,2.35-45.84Z"/><path class="cls-22" d="M264.7,478.54l.14.06c-2.72,5.73-51.95,24.77-53.94,21.42l-1.52-.57,1.52-.05,2.68-53h0l49.93-12.95C265.87,439.46,264.7,478.54,264.7,478.54Z"/><path class="cls-23" d="M213.72,391.53l49.81-14.74s-2.36,50.69,0,56.68L213.6,446.42h0l.14-2.8Z"/><path class="cls-21" d="M216.07,340.39c1.41,1.37-2.35,45.84-2.35,45.84v5.3l-45.11-18.89s-7-50.23-8.45-56.22Z"/><path class="cls-19" d="M216.07,340.39l-55.91-24c-1.42-6,.07-61.79.07-61.79,11.65,11.78,33.08,21.78,55.84,30.92C216.07,285.55,214.66,339,216.07,340.39Z"/><path class="cls-19" d="M213.72,391.53v52.08l-.14,2.8-49.31-21.23,4.34-14.3V372.64Z"/><path class="cls-21" d="M213.58,446.41l-2.68,53-1.52.05c-6.88-2.6-35.72-13.14-56.27-15.56v-.62s-.48-18.92-.48-21.23,11.64-36.86,11.64-36.86Z"/><path class="cls-23" d="M168.61,388.77v22.11l-4.34,14.3-57.2,23.43,0-.05c.78-6.1,1.42-10.94,1.42-10.94l5.17-18s-1.41-8.77.94-11.53,1.87-4.14,3.29-9.67c.86-3.39-.38-9.69-1.46-14.07l52.2-11.74Z"/><path class="cls-22" d="M168.61,372.64l-52.2,11.74c-.7-2.79-1.34-4.8-1.34-4.8L112.7,374l-4.23-15.21V345c0-2.88-1.52-9.74-3-15.66l54.67-12.92C161.57,322.41,168.61,372.64,168.61,372.64Z"/><path class="cls-22" d="M107.07,448.61l57.2-23.43S152.63,459.74,152.63,462s.48,21.23.48,21.23v.62S118,495.71,106.23,496.64c0,0-2-19-2-24,0-1.66,1.6-14.43,2.83-24.08Z"/><path class="cls-23" d="M102.83,265.27l57.4-10.64s-1.49,55.8-.07,61.79l-54.67,12.92c-1.35-5.48-2.66-10.15-2.66-10.15Z"/><path class="cls-24" d="M116.41,384.38c1.08,4.38,2.32,10.68,1.46,14.07-1.42,5.53-.94,6.91-3.29,9.67s-.94,11.53-.94,11.53l-5.17,18s-.64,4.84-1.42,10.94l-8.92-21.08,1.42-10.14,3.28-12.44v-7.84l2.83-8.29-1.42-13.36,1-8.77L103,356.37s-6.28-14.61-6.28-18.75S93.44,318.73,93.44,315c0-.46,0-1.68,0-3.46h.22l11.81,17.76c1.46,5.92,3,12.78,3,15.66v13.82L112.7,374l2.37,5.55S115.71,381.59,116.41,384.38Z"/><path class="cls-20" d="M98.13,427.48l8.92,21.08c-1.23,9.65-2.83,22.42-2.83,24.08,0,5,2,24,2,24s-7.15-8.6-9-18.74-3.75-20.74-3.75-20.74,3.78-8.52,4.69-13.55C98.46,441.79,98.13,427.48,98.13,427.48Z"/><path class="cls-24" d="M105.49,329.34,93.68,311.58h-.22c.08-12.45.39-52.59,0-57.83-.47-6,0-28.11,0-28.11,2.55,22.7,5.91,32.16,9.39,39.63v53.92S104.14,323.86,105.49,329.34Z"/><path class="cls-25" d="M395.6,432.67c-5.52,2.81-17.44.26-26.28-.8-7.09-.86-11.94-10-10.51-14.42,0,0-2.36-1.43-2.64-7.74a6.78,6.78,0,0,1,4.37-6.87s-4.1-2.13-4-8.56c.11-4.89,4.28-5.92,7-6.51,0,0-9-2.87-9.2-9.74-.15-4.69,3-7,7-7.08s10.13.78,17.31.8c10.28,0,8.7-1,11.85-1.73h0c-.06-2.31,2.18-7.34,2.41-9,0,0,14.55,6.53,16,20.83"/><path class="cls-25" d="M360.54,402.84s10.6,3.5,20.54,3.28"/><path class="cls-25" d="M358.81,417.45s10.88,3.28,18.47,3.9"/><line class="cls-25" x1="388.85" y1="370.53" x2="393.83" y2="368.99"/><path class="cls-4" d="M30,341.82c10.73,4.76,24.63,15.86,40.52,21.26,0,0-14.95,26.78-13.6,65.6a60.58,60.58,0,0,1-23.59-3.88C14.7,417.53.59,401.78,0,370.63-.34,352,18.22,320.36,33.59,296.77"/><path class="cls-26" d="M30,341.82c10.73,4.76,29.9,17.91,45.78,23.32"/><path class="cls-27" d="M76.23,368.64c-11-4.53-26.68-3.4-28.58.58-4.14,8.69-.85,33.81,0,45.4.77,10,14.54,11,22.54,11"/><path class="cls-25" d="M134.41,375.35c-4-.25-10.14.47-17.32.27-10.28-.28-5.43,0-8.56-.83h0c-1.62-4.73-2.93-13.6-5.15-16,0,0-7.32,2.7-25,3.92-11.86.81-28.81,2.56-30.71,6.54-4.14,8.69-.85,33.81,0,45.4.77,10,9.47,12.28,17.54,17.42,3,1.88,9.43,3.59,12,3.64,4.69.08,10.57-.44,21,.32,5.43,3,17.48-.51,26.35-1.3,7.12-.64,12.18-8.33,10.89-12.8,0,0,2.4-1.36,2.87-7.65a6.8,6.8,0,0,0-4.15-7s4.15-2,4.21-8.43c0-4.89-4.09-6-6.77-6.72,0,0,9.05-2.59,9.49-9.46C141.46,378,138.33,375.59,134.41,375.35Z"/><path class="cls-28" d="M95.19,438.4l-15.31-1a6.16,6.16,0,0,1-5.71-6.52l.2-34.87c.5-7.57,9.11-11.36,16.68-10.85h0c7.57.5,11.36,7.11,10.85,14.69l-.19,32.86A6.15,6.15,0,0,1,95.19,438.4Z"/><path class="cls-29" d="M90.42,387.11h.5A8.51,8.51,0,0,1,97.74,391a13.63,13.63,0,0,1,1.87,8.4L99.37,433a3.88,3.88,0,0,1-3.85,3.61h-.26l-15.21-1a3.85,3.85,0,0,1-3.59-4.13l.24-35.65c.12-5.64,7.16-8.68,13.72-8.68m0-.5c-6.69,0-14.09,3.09-14.22,9.17L76,431.43A4.35,4.35,0,0,0,80,436.07l15.22,1h.29A4.37,4.37,0,0,0,99.87,433l.24-33.66c.44-6.57-2.58-12.31-9.16-12.75h-.53Z"/><path class="cls-25" d="M109.34,393.15s12.9,2.2,22.33-1.06"/><path class="cls-25" d="M134.23,407.24s-10.71,3.18-20.64,2.66"/><path class="cls-25" d="M135.51,421.9s-11,3-18.59,3.33"/><line class="cls-25" x1="108.53" y1="374.79" x2="101.98" y2="372.4"/><path class="cls-28" d="M400.34,431.6c3.42-2.62,9.85-10.25,11.52-26.44,0,0,2.43-20.57-2.95-23.27l-9.09.33a9.27,9.27,0,0,0-8.91,9.58l1.43,39.48C392.42,433.54,396.78,434.32,400.34,431.6Z"/><path class="cls-29" d="M408.55,384.87c3.6,2.08,2.87,15.44,2.28,20.47-1.62,15.85-8.2,22-10.17,23.54a6.84,6.84,0,0,1-4,1.46c-1.38,0-2.36-.57-2.39-1.37L393,393.3a7.86,7.86,0,0,1,7.53-8.14l8.05-.29m.12-.5-8.19.3a8.35,8.35,0,0,0-8,8.65L393.76,429c0,1.13,1.26,1.85,2.89,1.85a7.21,7.21,0,0,0,4.31-1.57c3.08-2.36,8.87-9.26,10.37-23.88,0,0,2.18-18.59-2.66-21Z"/><g class="cls-30"><path class="cls-31" d="M109.34,393.15s16.46,1.75,25.89-1.51"/><path class="cls-31" d="M136.23,406.64s-12.71,3.78-22.64,3.26"/><path class="cls-31" d="M137.23,421.64s-12.7,3.21-20.31,3.59"/><path class="cls-31" d="M110.23,374.64A43.28,43.28,0,0,1,102,372.4"/></g><g class="cls-32"><path class="cls-31" d="M385.84,389.51s-16.29,1.68-25.61-1.87"/><path class="cls-31" d="M359.23,402.64s11.91,3.7,21.85,3.48"/><path class="cls-31" d="M356.23,417.64s13.46,3.09,21,3.71"/><path class="cls-31" d="M386.23,369.64a13,13,0,0,0,8,0"/></g><g class="cls-33"><path class="cls-18" d="M135.69,323.54c3-.58,4.18-.85,6.21-1.4a30.5,30.5,0,0,0,.07,3.46c.14,3.42,1.87,3.78,3.25,3.36,2-.62,2.7-3.59,2.24-6-1.22-6.29-9.32-2.06-10-17.1-.51-11.12,4.68-17.25,8.27-18.79,2-.86,6-.55,5.77,8.37-.06,2.76-.09,4.13-.14,6.88-1.71.59-2.4.89-3.88,1.48,0-1.34,0-2,.06-3.34.07-2.48-.92-2.64-1.87-2.26-1.41.56-2.43,2.26-2.3,5.28.31,7.09,4.87,2.17,8.42,17.35,2.56,10.91-2.28,17.55-6.76,18.82-2.81.79-10.17-.81-9.44-10.53C135.75,326.92,135.51,325.83,135.69,323.54Z"/><path class="cls-18" d="M164.34,313.23l.21.09s0-1.35,0-2.17c-.13-2.22-1.09-3.51-2.07-4-2-.94-5.48,3.68-5.48,3.68-.83-3.45-1.23-5.17-2-8.62,0,0,4.53-6.24,7.88-4.6,2.53,1.24,6.43,5.19,7,14.4.27,4.38-.08,11.36,0,14.63.07,1.63.39,2.68,1.33,3a4.24,4.24,0,0,0,.64.14c-.34,3.43-.72,5.14-.48,8.56a6,6,0,0,1-2.11-.5c-1.71-.57-4.2-1.47-4.76-7l-.06,0s0,3.92-4.73,4.86c-3.46.69-6.09-1.72-6-8.15C153.81,317.21,160.37,311.5,164.34,313.23Zm-2.91,13.92c1.46.38,3.2-3.28,3.06-6.09,0-.33,0-.5-.07-.83l-.48-.2c-1.13-.48-4,0-3.83,4C160.22,326,160.64,326.94,161.43,327.15Z"/><path class="cls-18" d="M176.14,314.28c0-1-.24-1.64-.74-1.81l-1.68-.59c.1-3.51.15-5.26.28-8.75,2.3.85,3.48,1.26,5.88,2.08,1.5.52,2.31,2,2.44,4.12a16.33,16.33,0,0,1-.12,2.76l.07,0s1.91-6.28,6.5-4.76c3.17,1,5.69,5.14,6.1,12,.27,4.5-.27,12.27-.18,15.08,0,1.57.41,2.58,1.43,2.89.29.08.68.14.68.14a49.87,49.87,0,0,0-.69,8.23,8.68,8.68,0,0,1-2.17-.44c-2.46-.72-5.84-2.12-5.76-9.76,0-4.07.44-11.89.28-14.37-.1-1.71-.6-3.18-2-3.63-2.67-.85-4.79,3.75-4.34,9.21.48,5.88-1.1,8.83-.83,14.68-2.48-.74-3.71-1.1-6.11-1.84C174.59,329.58,175.81,324.56,176.14,314.28Z"/><path class="cls-18" d="M207.94,340.77l2.53.92c.34-9.92.73-19.85,1.36-29.76-1-.45-1.49-.68-2.52-1.12.24-3.41.38-5.1.75-8.45,6.88,3.13,9.2,1.14,16.6-2-.68,6-.87,9-1.18,15.1-2,.76-3,1.14-4.95,1.87.09-1.72.14-2.57.24-4.28-1.57.63-2.33.94-3.78,1.55-.25,4.27-.33,6.41-.49,10.66,2.43-.89,3.76-1.36,6.53-2.33-.17,4-.24,6-.42,9.9-2.76.85-4,2-6.51,1.8-.16,3.73.07,5.66-.33,9.21,1,.44,1.57-.11,2.67-.4a74.44,74.44,0,0,0-.83,8.55c-4.22.89-5.92-1.3-10.45-2.82A58.44,58.44,0,0,1,207.94,340.77Z"/><path class="cls-18" d="M229.48,323.7c0-.79-.12-1.53-.72-1.33l-1.68.57c.16-3.61.23-5.42.44-9,2.28-.85,3.46-1.29,5.85-2.16,1.47-.54,2.32.17,2.43,2.54a49.6,49.6,0,0,1-.25,5.36l.07,0c.95-5.45,3.48-10.63,6.23-11.63a4.88,4.88,0,0,1,1.13-.27c-.32,5.19-.42,7.79-.66,12.95a3.38,3.38,0,0,0-1.29.19c-1.94.64-5.38,4.53-5.75,14.31-.22,5.29-1.07,7.91-1.26,13.07-2.51.6-3.76.89-6.17,1.45C228.14,339.63,229,334.4,229.48,323.7Z"/><path class="cls-18" d="M254.69,319.17l.25-.08s.08-1.5,0-2.35c-.1-2.31-1.22-2.87-2.46-2.45-2.49.83-5.46,5.39-5.46,5.39-.7-3.57-1.06-5.35-1.75-8.88,0,0,3.91-5.7,8.07-7.24,3.14-1.15,7.14-.08,7.53,9.82.19,4.72-.52,13-.5,16.55,0,1.76.34,2.65,1.27,2.41a4.84,4.84,0,0,0,.64-.24c-.42,3.92-.78,5.87-1.05,9.72a7,7,0,0,1-2.18.72c-1.8.4-4.36.83-4.82-4.49l-.07,0s-2.18,6.76-5.94,7.65c-2.78.65-5.42-1.75-5.3-8.41C243.17,326.58,249.94,320.67,254.69,319.17Zm-4,16.95c1.76-.46,3.74-5.26,3.86-8.45,0-.38,0-.56,0-.93l-.57.16a6.79,6.79,0,0,0-4.68,6.6C249.29,335.55,249.72,336.38,250.67,336.12Z"/><path class="cls-18" d="M266.79,311.41c0-1.15-.18-1.72-.62-1.57l-1.52.52c.16-4.1.24-6.15.47-10.25a45.35,45.35,0,0,1,4.94-1.69c1.19-.32,1.78,1.35,1.84,3.87a28.89,28.89,0,0,1-.14,3.28l.06,0s1.53-7.67,5.6-6.08c2.82,1.1,5.2,5.82,5.58,13.8.24,5.21-.5,14.3-.47,17.59,0,1.85.37,3,1.39,3.29a5,5,0,0,0,.69.12c-.42,3.86-.76,5.79-1.13,9.61a7.21,7.21,0,0,1-2.2-.32c-2.43-.61-5.2-1.88-4.94-10.91.14-4.79.76-14.1.64-17-.08-2-.52-3.7-1.74-4.12-2.3-.79-3.84,4.84-3.8,11.5,0,7.18-1,10.7-1.5,17.51-2-.45-2.94,0-5.11.45C266.26,331.29,266.44,321.24,266.79,311.41Z"/><path class="cls-18" d="M298.29,307.86c3.28,1.33,8.37,5.63,8.09,13.6-.07,2.09-.11,3.13-.19,5.23l-5.33-1.83.1-2.07a4.08,4.08,0,0,0-2.59-4c-3.51-1.28-5.13,4.63-4.91,9.89.17,4,1.42,8.14,4.56,9.06,3.41,1,6-2.63,6-2.63.81,4,1,6,1.51,9.83,0,0-3,4.74-8.42,3.36-6.65-1.67-9.23-10.67-10.09-20.67C286,316,290.53,304.73,298.29,307.86Z"/><path class="cls-18" d="M310.34,337.76c.36-5.93.35-9,.57-15l-2.38-.85c.13-3.59.19-5.38.41-8.93,3.34,1.33,4.62,2.48,7.86,3-.64,9-.55,13.59-1,22.51,0,.69-.08,1.59-.08,2.3,0,1.63.3,2.63,1.09,2.85a1.63,1.63,0,0,0,.61,0c-.48,3.58-.74,5.23-1.21,8.58a5.31,5.31,0,0,1-1.49-.15c-2.3-.55-4.86-1.64-4.68-9.72C310.1,341,310.22,339.53,310.34,337.76ZM313,300.23c2.25,1,3.33,1.48,5.35,2.32a81.47,81.47,0,0,0-1.2,8.95,29.09,29.09,0,0,1-5.38-2.05A84.15,84.15,0,0,1,313,300.23Z"/><path class="cls-18" d="M320,339a14,14,0,0,0,4.41-2c0,.5,0,.75-.07,1.25-.16,2.63,1.28,2.2,2.13,1.66a3.79,3.79,0,0,0,1.69-3.32c0-4.29-6.41,1.36-7.18-9.64-.58-8.25,2.86-13.54,6.52-15.76,2.65-1.61,6-1.49,5.59,5.05-.11,1.67-.16,2.5-.26,4.17-1.67,1-2.46,1.55-4.06,2.57,0-.56,0-.85,0-1.41,0-2-.92-1.58-1.51-1.22a3.21,3.21,0,0,0-1.57,3.15c.32,4.78,7-1.82,6.72,9-.18,7.71-3.21,13.84-6.91,16.19-2.22,1.41-6.69,1.45-5.84-6.1C319.89,341.18,320,340.46,320,339Z"/><path class="cls-18" d="M346,300.67c2.61-1.42,7.36-1.4,6.41,7.14-.25,2.24-.37,3.36-.62,5.59-1.95.84-2.92,1.24-4.79,1.9l.25-2.1c.21-1.79-.64-2.66-2-2.18-3,1-5.34,8.48-5.53,13.12-.15,3.54.35,6.44,3.63,5,3.56-1.53,5.54-5.66,5.54-5.66a85.26,85.26,0,0,1,.46,8.7,17.21,17.21,0,0,1-8.08,6.94c-6.84,2.85-6.85-2.58-6.85-11.07C334.4,318.25,337.32,305.39,346,300.67Z"/><path class="cls-18" d="M367.49,293.21c6.16,0,4.67,5.74,4.87,15.56.2,9.35-3.28,20.57-12.24,24.41-4.85,2.08-7.45-2.91-7-13.39C353.45,311.2,356,293.24,367.49,293.21Zm-5.14,29.42c2.94-.64,5.81-5.49,6.39-12.29.37-4.41-.34-6.8-2.72-6.54-3,.32-6.88,5.71-7,12.8C358.88,321.13,360,323.13,362.35,322.63Z"/></g><g class="cls-33"><path class="cls-18" d="M237,386.87c.41-2.23,1.58-6.09,1.86-7.61.13-.74.12-1.21-.4-1.13-1.28.21-5.29,8-5.88,11a2.4,2.4,0,0,1-1.54,2c-.59.14-.77-.48-.56-1.7s1.91-7.48,2.24-9.39c.25-1.46.12-1.88-.6-1.79-1.76.25-5.31,7.22-5.87,10.74s-.71,5.08-1.16,5.19-.63-.4-.64-1.67.08-8.27,0-13.51c0-1.52.44-2.09,1.1-2.19,1-.14,1.4.36,1.32,1.65s-.5,4.87-.54,5.19c.16-.44,3.54-7.63,6.78-8,2.22-.27,2.17,1.66,1.81,3.51-.17.9-.57,2.36-.57,2.36s3.13-5.55,5.09-5.83c1.12-.15,1.47.74,1.15,2.83s-1.26,5.68-1.55,7.49c-.25,1.58,0,2.15.65,2s1.83-2.24,2.63-3.59c.3-.51.51-.87.81-.95s.71.3.68.7a2.37,2.37,0,0,1-.46,1.12c-1.08,1.79-2.69,4.43-4.38,4.94S236.58,389.29,237,386.87Z"/><path class="cls-18" d="M256.92,380.66c.27-.46.47-.79.75-.85a.62.62,0,0,1,.68.63,2.09,2.09,0,0,1-.38,1c-.94,1.61-2.36,4-4.49,4.62-3.4.94-3.36-3.81-3.36-3.81s-3.27,5.67-6,6.44c-2,.57-2.63-1.34-2.43-3.4.66-6.91,4.39-11.64,6.74-12.09s2.83,1.41,2.86,1.56c0-.09.91-1.75,1.92-1.95.66-.13,1,.29,1,.9,0,.88-1.51,1.79-1.64,5.36-.11,2.86,0,5.36,1.34,5S256.19,381.89,256.92,380.66ZM244,384.35c-.11,1.42,0,2.41,1,2.14,1.2-.33,4.73-6.29,4.75-6.79s-.53-.51-.5-1.13.52-1.11.55-1.72c.06-1.4-.18-2.17-1.19-2C247.31,375.15,244.42,379,244,384.35Z"/><path class="cls-18" d="M264.35,382.84a5.49,5.49,0,0,1-2.93,2.11,6,6,0,0,1-2.93.05,50.1,50.1,0,0,0-.08,6c-.06.37-.65.61-1.43.82s-.94.24-.84-.55c.12-1.08.55-6.67.86-11.65.23-3.75.49-6.3.49-6.63,0-.82.29-1.15.72-1.23a1.21,1.21,0,0,1,1.51,1,32.44,32.44,0,0,1-.5,3.78,30.23,30.23,0,0,0-.31,3.69c.91-2.39,4.42-9.23,6-9.11s1.91,2.36,1.79,4.18a17.83,17.83,0,0,1-1.39,5.85l.21,0A3,3,0,0,0,268.4,380c.23-.33.39-.55.63-.49a1.1,1.1,0,0,1,.56.94,1.35,1.35,0,0,1-.37.79,4.27,4.27,0,0,1-3.87,1.8Zm-1.76-.41a21,21,0,0,1-3.06-.85,3.33,3.33,0,0,0-.13.72c0,.76.51,1.31,1.67,1A3.22,3.22,0,0,0,262.59,382.43Zm1.21-1.74a13.82,13.82,0,0,0,1.52-5.38c.08-1.14-.06-2-.65-2-.9-.07-4.06,6.1-4.07,6.41S262.4,380.45,263.8,380.69Z"/><path class="cls-18" d="M285.22,388.36a3.7,3.7,0,0,1-3.52.42,6.67,6.67,0,0,1-4.46-6.78,5.53,5.53,0,0,1,2.33-4.31,3.26,3.26,0,0,1,3.66-.91,7,7,0,0,1,4.25,7.23,6.86,6.86,0,0,1-1.2,3.31l.42.15a1.9,1.9,0,0,0,2.2-.52c.26-.27.45-.45.71-.36a1.12,1.12,0,0,1,.59.94,1,1,0,0,1-.39.7c-.91,1-1.95,1.13-3.53.58A9.61,9.61,0,0,1,285.22,388.36Zm-1.83-1.24a12.15,12.15,0,0,1-3.84-5.92,6.25,6.25,0,0,0-.3,1.62,4.11,4.11,0,0,0,2.57,4.24A2.65,2.65,0,0,0,283.39,387.12Zm1.18-.86a5.17,5.17,0,0,0,1-2.82c.21-2.73-.76-4.58-2.28-5.17-1.17-.45-2.07-.06-2.16,1.25C280.94,381.7,282.47,384.57,284.57,386.26Z"/><path class="cls-18" d="M291.36,389.61c.06-.67.5-1,1-.81.8.27,1.1,1.41,1.76,1.62s1.09-.36,1.62-1.09c.2-.28.33-.47.51-.41a.89.89,0,0,1,.37.79,1.52,1.52,0,0,1-.29.7c-.55.83-1.06,1.46-2,1.41a15.93,15.93,0,0,1,.09,2.43c-.37,3.92-1.87,5.71-3.38,5.22-1.66-.54-2.7-2.41-2.39-6.07.27-3.16.6-7.45,1-10.22,1-6.38,2.11-11.24,4.38-10.28,1.16.49,1.58,1.68,1.58,3.78,0,5.09-4.33,8.89-4.33,8.89-.19,2.15-.53,4.8-.8,7.9-.32,3.59.16,4.46.81,4.67s1.39-1.46,1.66-4.42c.13-1.48.12-2.46-.64-2.71A1.29,1.29,0,0,1,291.36,389.61Zm.17-6.56a12.8,12.8,0,0,0,2.81-7.66c0-.56-.16-.87-.45-1C293.18,374.08,292.25,378.37,291.53,383.05Z"/></g><g class="cls-33"><path class="cls-18" d="M183.37,416.61c3.07.91,5.82,4.06,6.15,11.29a7.18,7.18,0,0,1-5.4,7.58l0,.12c4,2.24,3.64,8.36,2.46,11.91-2.71,8.17-8.22,10.32-11.88,9.44a11.06,11.06,0,0,1-5.39-2.72c-.42-.46-.41-1.47.17-3.08,3.48-9.15,8.27-19.77,7.59-29.83-.05-2.52-.68-3.64-2-4.44-.48-.31-.76-.58-.62-1.21.09-.38.14-.57.23-.93s.33-.53.52-.48C178.53,415.19,180.16,415.66,183.37,416.61Zm-4.45,16.73,2.41.65c2.83.76,5.23-2.29,5.14-6.06-.11-4.95-1.7-7.72-3.48-8.24l-3.07-.88C180,424.91,180.66,427.73,178.92,433.34Zm-5.06,14.85c-1.29,3.61-.6,5.54,1.88,6.15,2.73.66,5.79-2.77,7.36-7.58,1.74-5.34.48-8.85-2.79-9.72l-2.37-.62C176.36,441.27,175.53,443.56,173.86,448.19Z"/><path class="cls-18" d="M202,456.69c-.44,1.43-.51,2.25,0,3s1.08.59.77,1.26l-.59,1.25c-.26.52-.49.43-.81.35l-3.09-.71c-.65-.09-.71-.79-.38-1.85.64-2.09,1-3.12,1.6-5.19l-.06,0c-2.4,4.26-5.81,6.68-8.16,6.13-3.75-.87-3.94-7.34-1.89-13.79,2.69-8.49,7.55-15.16,12.12-14a11.71,11.71,0,0,1,4.28,2.51c.91.78,1.64,1.46.7,5.11C204.86,447.37,203.94,450.43,202,456.69Zm-9.36-9.85c-1.77,5.76-1.94,10.5.31,11s7.05-4.21,9.31-12.25c1.4-5,2.13-9.52-.83-10.29C198.11,434.45,194.49,440.92,192.66,446.84Z"/><path class="cls-18" d="M218.92,424.8c-.37-2.45-.88-2.63-2.18-2.78-.29-.09-.58-.25-.52-1,0-.43.05-.64.08-1.05s.18-.44.33-.48l3.15-1c.58-.18.94.29,1.15,1.41,2.23,12.82,2,21.92.95,34.82-.15,1.5,0,2.27.79,2.59s1.57-.06,1.36.7l-.42,1.43c-.19.6-.54.64-.92.75l-3.83,1.06c-.81.28-1.06-.31-.92-1.43.15-1.3.23-1.94.39-3.24l-.08,0c-1.56,3.24-4.38,6.67-7.5,7.52-4.71,1.28-5.29-5.24-3.2-13.8,1.92-7.89,4.9-15.48,9.25-16.8a5.41,5.41,0,0,1,3.49.18C219.74,430.56,219.47,428.47,218.92,424.8ZM210,450.21c-1.25,6-1.3,11.35,1.9,10.47,4.06-1.11,6.83-6.2,7.62-14.35.75-7.65.3-11.19-2.43-10.37C213.67,437,211.25,444.07,210,450.21Z"/><path class="cls-18" d="M243,433.43l.07,0c3.71-8.57,4.4-13.47,7-22l3.53-1c.06.49.08.74.14,1.25.25,2.22-1.66,1.3-3.19,6.72a80.29,80.29,0,0,1-4.74,13.42c3,5.93,6.49,14.42,7.24,16.21.33.79,1,1.48,1,2.06l-.15,1.33-2.25.64c-1.14.32-1.5-1.25-2.56-3.94a104,104,0,0,0-6-13.28l-.07,0c-.17,5.9-.29,8.72-.67,14.45-.15,2.19.32,2.39,1.79,2.52.39,0,.41.43.26.92s-.19.65-.32,1.09a.85.85,0,0,1-.54.54l-6.72,1.92c-.27.08-.6.06-.4-.71l.25-1a1.4,1.4,0,0,1,.68-1,4,4,0,0,0,1.86-3.45c.59-9.38,1.55-19.8-.77-29-.43-2.44-1-2.65-2.86-2.73-.48,0-.64-.45-.6-1s.05-.69.08-1.14a.72.72,0,0,1,.51-.58l7.45-2.24c.28-.08.66-.08.61.74,0,.4,0,.6,0,1a1.21,1.21,0,0,1-.53,1.05c-.84.5-1.59,1.7-1.23,3.83C242.74,425.78,243.17,428.2,243,433.43Z"/><path class="cls-18" d="M259.35,436.38c-.58,5.77-.12,11.34,2.41,11.17,1.13-.08,1.7-1.15,3.27-2.62.32-.31.75.68.56,1a19.74,19.74,0,0,0-1.32,2.5,3.89,3.89,0,0,1-.64,1.16,5.24,5.24,0,0,1-2.64,1.17c-3.53.38-4.89-6-4.2-13.68.89-9.91,3.79-16.27,7.36-15.62,3.33.61,5,6.24,4,13.44-.14,1-.58,2.08-1,2C263.47,436,262.51,436.45,259.35,436.38Zm5.24-2.4c.83.07,1.33-.77,1.53-2.31.7-5.32-.55-7.5-1.92-7.72-2.26-.36-4.06,4.45-4.58,9.72C261.64,433.76,262.63,433.83,264.59,434Z"/><path class="cls-18" d="M278.59,430.56c1.79-2.69,3.09-4.2,4.21-3.85.47.15.86.45,1.27,1.77a21,21,0,0,1,.63,3.08.72.72,0,0,1-.1.46l-.88,1.31c-.36.55-1.43-2.06-2.59-2.4s-2.73,1.27-3.31,6.33c-.46,4.05-.77,6-1.42,10.05a3,3,0,0,0,.22,2.23c.62,1.22,2.65,1,1.85,2.37l-.37.67c-.2.44-.6.3-1.05.2l-5.9-1.34c-.5-.11-1-.07-.63-1.08l.28-.7c.37-1,1.15-.18,1.94-1a3.15,3.15,0,0,0,.86-2c1.08-6.39,1.45-9.54,2.2-16.11.24-2.11-.18-2.58-1.48-3.47a1.07,1.07,0,0,1-.32-1.16c.1-.33.14-.5.23-.85s.26-.29.43-.23l3.48,1.06c.32.1.71.19.75,1.24A20.7,20.7,0,0,1,278.59,430.56Z"/><path class="cls-18" d="M287.68,434.18l.06,0c2.05-4.48,4.3-4.57,5.93-4.07,2.71.85,4.38,3.95,4.05,9.94-.26,4.89-.43,7.28-1,12.12-.22,1.94.21,2.35,1.71,3.2a.67.67,0,0,1,.25,1l-.35.83a.49.49,0,0,1-.58.23L291.35,456c-.25-.05-.55-.22-.31-.84.11-.31.17-.46.29-.77a.73.73,0,0,1,.69-.57c.78,0,1.69-.59,1.9-2.29.46-3.78.66-5.67.91-9.47.38-5.74-.09-8.37-2.29-9-2.37-.71-4.49,2.37-6,13.25-.19,1.35-.29,2-.48,3.37-.28,2,.15,2.41,1.6,3.27a.69.69,0,0,1,.22,1l-.37.86a.52.52,0,0,1-.59.24l-6.41-1.44c-.25-.06-.55-.24-.29-.87.12-.32.19-.48.31-.79a.77.77,0,0,1,.71-.59c.82,0,1.75-.6,2-2.35.92-6.25,1.2-9.32,1.77-15.73.18-2.06-.24-2.52-1.55-3.42a1,1,0,0,1-.34-1.13c.08-.33.13-.49.22-.83s.25-.27.43-.22l3.44,1.09c.33.1.71.19.76,1.22A28.16,28.16,0,0,1,287.68,434.18Z"/><path class="cls-18" d="M304.42,438.79c.06-2-.38-2.37-1.73-3.21a1,1,0,0,1-.4-1.07c.09-.32.13-.48.21-.8s.25-.27.43-.21c1.67.47,2.51.71,4.19,1.16.53,7.85,0,11.89-.73,19.76-.17,1.91.27,2.31,1.78,3.14a.66.66,0,0,1,.27.95c-.13.33-.2.49-.33.83a.49.49,0,0,1-.56.22l-6.44-1.4c-.26-.06-.56-.23-.34-.83l.27-.75a.69.69,0,0,1,.67-.56c.81,0,1.7-.57,1.86-2.24C304.15,447.81,304.22,444.86,304.42,438.79Zm.6-14.57c.91.28,1.8,1.84,1.91,3.47s-.61,2.75-1.51,2.5-1.86-1.87-2-3.51S304.07,423.94,305,424.22Z"/><path class="cls-18" d="M318.28,440.91h.06c1.63-5.14,3.91-7.12,5.41-7.82,2.52-1.17,4.06.86,4.35,7.13.24,5.12.33,7.66.24,12.77,0,2.06.38,2.19,1.71,2.16.36-.05.41.35.29.82l-.23,1.05a.85.85,0,0,1-.47.56c-2.23.92-3.36,1.39-5.9,2.34-.25.09-.56.11-.38-.63.09-.36.13-.54.22-.91a1.43,1.43,0,0,1,.62-.95,4.06,4.06,0,0,0,1.58-3.37c.11-3.95.13-5.92,0-9.88-.21-6-.8-8.18-2.91-7.26-2.27,1-4,5.13-4.71,15.95-.09,1.34-.13,2-.22,3.35-.13,2,.32,2.3,1.77,2.88.39.12.47.42.3.88s-.2.63-.32,1a.52.52,0,0,1-.54.33,36.72,36.72,0,0,1-6.38-.61c-.25-.05-.56-.22-.35-.82l.25-.73a.67.67,0,0,1,.65-.56c.8,0,1.68-.76,1.8-2.43.43-6,.41-8.94.44-15,0-1.94-.49-1.94-1.87-2.72a.88.88,0,0,1-.42-1l.2-.8c.07-.32.25-.27.43-.23,1.4.33,2.18-.16,3.58-.46.33-.07.71-.2.78.85C318.35,438.37,318.28,439.25,318.28,440.91Z"/><path class="cls-18" d="M333.23,462.9c.25-.9.44-1.51.71-.81.88,2.27,2.6,3,4.44,2.35,2.57-.94,5-4.49,4.88-13.13l-.1-6.05-.06,0c-1,4.94-3.42,8.85-5.56,9.69-3.42,1.34-4.87-3.84-5.24-10.2-.48-8.38,1.95-17.19,6.27-19a6.38,6.38,0,0,1,4.29-.08c1,.29,1.87.48,2.21,4,.74,7.64,1.06,11.47,1.26,19.15.31,11.46-3.32,17-7.93,18.67-2.83,1-4.11.33-5.27-.35-.53-.34-.88-.57-.55-1.83Zm1.55-20.3c.36,5.71,1.26,9.72,3.32,8.91s5.21-7.55,4.53-15.51c-.43-4.95-1.22-9-4-7.88C335.47,429.42,334.4,436.72,334.78,442.6Z"/></g></g></g></svg>