<svg xmlns="http://www.w3.org/2000/svg" xmlns:xlink="http://www.w3.org/1999/xlink" viewBox="0 0 380 380"><defs><style>.cls-1{fill:url(#linear-gradient);}.cls-2{fill:#f26657;}.cls-3{fill:#c47054;}.cls-4{fill:url(#linear-gradient-2);}.cls-5{fill:#84559e;}.cls-6{fill:#fdede4;}.cls-7{fill:#996aa8;}.cls-8{fill:#fcf3f3;}.cls-9{fill:#b83e35;}.cls-10{fill:#ebe4df;}.cls-11{fill:#b34949;}.cls-12{fill:#d46059;}.cls-13{fill:#edeaeb;}.cls-14{fill:url(#linear-gradient-3);}.cls-15{fill:url(#linear-gradient-4);}</style><linearGradient id="linear-gradient" x1="190" y1="285" x2="190" y2="141.84" gradientUnits="userSpaceOnUse"><stop offset="0" stop-color="#9c2e12"/><stop offset="0.17" stop-color="#96301c"/><stop offset="0.38" stop-color="#94311f"/><stop offset="0.5" stop-color="#932"/><stop offset="0.64" stop-color="#a73a29"/><stop offset="0.79" stop-color="#bf4635"/><stop offset="0.95" stop-color="#df5647"/><stop offset="1" stop-color="#eb5c4d"/></linearGradient><linearGradient id="linear-gradient-2" x1="171.14" y1="237.24" x2="212.79" y2="1.06" gradientUnits="userSpaceOnUse"><stop offset="0" stop-color="#f5f1b3"/><stop offset="0.06" stop-color="#f8dfab"/><stop offset="0.15" stop-color="#fbcba1"/><stop offset="0.25" stop-color="#fdbc9a"/><stop offset="0.36" stop-color="#ffb496"/><stop offset="0.56" stop-color="#ffb195"/><stop offset="1" stop-color="#ff815b"/></linearGradient><linearGradient id="linear-gradient-3" x1="189.96" y1="140.85" x2="189.96" y2="189.19" gradientUnits="userSpaceOnUse"><stop offset="0" stop-color="#fff" stop-opacity="0"/><stop offset="0.14" stop-color="#fff" stop-opacity="0.03"/><stop offset="0.35" stop-color="#fefefe" stop-opacity="0.11"/><stop offset="0.6" stop-color="#fdfdfd" stop-opacity="0.24"/><stop offset="0.89" stop-color="#fbfbfb" stop-opacity="0.42"/><stop offset="1" stop-color="#fafafa" stop-opacity="0.5"/></linearGradient><linearGradient id="linear-gradient-4" x1="-1509.17" y1="67.85" x2="-1509.17" y2="116.19" gradientTransform="translate(-1319.17 284.05) rotate(180)" xlink:href="#linear-gradient-3"/></defs><title>mars</title><g id="Layer_2" data-name="Layer 2"><g id="Layer_2-2" data-name="Layer 2"><path class="cls-1" d="M194.93,241.43a161.23,161.23,0,0,0,67-6.29q4.58-1.42,9.1-3.14a213.76,213.76,0,0,0,23.85-11.2h0q3.86-2.06,7.82-4.28c4.44-2.49,9-5.11,13.46-7.8,5.18-3.09,10.35-6.26,15.36-9.4C344,191.5,355.46,183.88,364,178.1,373,172,378.73,168,378.73,168h0A193.14,193.14,0,0,1,380,190a189.3,189.3,0,0,1-16,76.42l-.06.12c-.28.55-1.82,3-7.94,6.46-7,4-25,12-42,12s-99-11-124-6l-.15,0c-25,4.88-75.86-18-79.85-22s-23-2-33-9-70.12-7.19-70.12-7.19A189.66,189.66,0,0,1,0,190s10-11,13-12,10-20,11-22,8,4,20-6,23-8,23-8a383.35,383.35,0,0,0,24.26,35.87,277.81,277.81,0,0,0,23.8,27.67c8.19,8.24,16.93,15.6,25.77,20.8A64.43,64.43,0,0,0,153,232q8.1,2.7,16.06,4.71A196.28,196.28,0,0,0,190,240.82C191.65,241.05,193.29,241.25,194.93,241.43Z"/><path class="cls-2" d="M356,273c6.12-3.5,7.66-5.91,7.94-6.46A190.05,190.05,0,0,1,26.49,286.81S60,288,67,288s44,9,58,6c13.56-2.91,61.85-14.26,64.85-15l.15,0c25-5,107,6,124,6S349,277,356,273Z"/><path class="cls-3" d="M378.74,168h0S373,172,364,178.1a94.26,94.26,0,0,1,0-18.1c1-9,0-11,0-18,0-6.79,5.5-14.3,3.15-20.79A188.8,188.8,0,0,1,378.74,168Z"/><path class="cls-4" d="M185.14,234.85C182.9,228,182.68,216.77,182,210c-1-10,5-8,4-18s0-13.19-4-10c-5,4-7,25-7,35s-5.94,19.71-5.94,19.71q-8-2-16.06-4.71a64.43,64.43,0,0,1-12.17-5.66C136.67,218.68,138,205,137,195s-7-35-8-44,5-27,4-37,0-21-2-21-4,20-5,25-4,15-4,24-11.89,13.77-11.89,13.77c0-10.08.89-22.87.89-28.77,0-9-4-19-5-9s2,15,0,20,0,9-4,14-10.55,25.29-10.74,25.87A383.35,383.35,0,0,1,67,142s-11-2-23,8-19,4-20,6-8,21-11,22S0,190,0,190C0,85.07,85.07,0,190,0a189.21,189.21,0,0,1,89.34,22.28A43.5,43.5,0,0,0,301,103.5a44.44,44.44,0,0,0,5.32-.32c.33,4.7.45,8.88-.32,10.82-2,5-1,30,0,39s-2,11-3,15,3,9,0,10-.31,38.51-.31,38.51q-4,2.22-7.82,4.28h0C291.74,222.52,292,207,292,206s-7-3-6-8,12-14,8-20-2-8-2-16-5,1-6-16a181.18,181.18,0,0,0-5-32s-4,6-1,19-3,45-5,51,2,17-4,19-9.19,31.85-9.19,31.85l.09.29a161.23,161.23,0,0,1-67,6.29l.07-.62s2-7.81,0-14.81,0-6,0-12-3-16-3-8-3,6-3,17-3.85,11.85-3.85,11.85ZM250,93a16,16,0,1,0-16,16A16,16,0,0,0,250,93Zm116.92,27.61a189.84,189.84,0,0,0-25.28-45.09,43.6,43.6,0,0,1-28.22,26.18c-.09,3.59-.42,7.11-.42,12.3,0,9-2,19,0,22s1,9,2,17,6.54,17,5.77,20A74.92,74.92,0,0,0,323,162c1-9,0-25,2-37s3,4,4,8,2,8,0,17,3,15,4,20-5,11-4,15,2.51,14.31,2.51,14.31C344,191.5,355.46,183.88,364,178.1a94.26,94.26,0,0,1,0-18.1c1-9,0-11,0-18,0-6.79,5.5-14.3,3.15-20.79A4.92,4.92,0,0,0,366.92,120.61Z"/><path class="cls-5" d="M333,170c1,5-5,11-4,15s2.51,14.31,2.51,14.31c-5,3.14-10.18,6.31-15.36,9.4,0,0-2.15-14.71-.15-20.71,1.22-3.67,3.19-9.2,4.77-15A74.92,74.92,0,0,0,323,162c1-9,0-25,2-37s3,4,4,8,2,8,0,17S332,165,333,170Z"/><path class="cls-6" d="M341.64,75.52a43.6,43.6,0,0,1-28.22,26.18A55.63,55.63,0,0,0,313,93c-1-8-3-25-4-24s-1,10-3,15c-1.23,3.06-.2,11.76.32,19.18a44.44,44.44,0,0,1-5.32.32,43.5,43.5,0,0,1-21.66-81.22A190.87,190.87,0,0,1,341.64,75.52Z"/><path class="cls-7" d="M315,153c1,8,6.54,17,5.77,20l-18.08,43.52S300,179,303,178s-1-6,0-10,4-6,3-15-2-34,0-39c.77-1.94.65-6.12.32-10.82a43.62,43.62,0,0,0,7.1-1.48c-.09,3.59-.42,7.11-.42,12.3,0,9-2,19,0,22S314,145,315,153Z"/><path class="cls-7" d="M302.69,216.51,320.77,173c-1.58,5.81-3.55,11.34-4.77,15-2,6,.15,20.71.15,20.71C311.65,211.4,307.13,214,302.69,216.51Z"/><path class="cls-7" d="M313,93a55.63,55.63,0,0,1,.42,8.7,43.62,43.62,0,0,1-7.1,1.48c-.52-7.42-1.55-16.12-.32-19.18,2-5,2-14,3-15S312,85,313,93Z"/><path class="cls-3" d="M292,206c0,1-.26,16.52,2.85,14.8A213.76,213.76,0,0,1,271,232q-4.53,1.71-9.1,3.14l-.09-.29S265,205,271,203s2-13,4-19,8-38,5-51,1-19,1-19a181.18,181.18,0,0,1,5,32c1,17,6,8,6,16s-2,10,2,16-7,15-8,20S292,205,292,206Z"/><circle class="cls-8" cx="234" cy="93" r="16"/><path class="cls-7" d="M195,226c2,7,0,14.81,0,14.81l-.07.62c-1.64-.18-3.28-.38-4.93-.61h0c-2.26-.38-3.79-2.68-4.86-6h0S189,234,189,223s3-9,3-17,3,2,3,8S193,219,195,226Z"/><path class="cls-5" d="M190,240.81h0a196.28,196.28,0,0,1-20.94-4.11S175,227,175,217s2-31,7-35c4-3.19,3,0,4,10s-5,8-4,18c.68,6.77.9,18,3.14,24.85C186.21,238.13,187.74,240.43,190,240.81Z"/><path class="cls-9" d="M110,257c4,4,54.8,26.91,79.85,22-3,.71-51.29,12.06-64.85,15-14,3-51-6-58-6s-40.51-1.19-40.51-1.19a188.17,188.17,0,0,1-19.61-46S67,241,77,248,106,253,110,257Z"/><path class="cls-7" d="M137,195c1,10-.33,23.68,3.83,31.34-8.84-5.2-17.58-12.56-25.77-20.8C112.13,199.09,113,175,111,168c-.69-2.41-.9-6.95-.89-12.23,0,0,11.89-4.77,11.89-13.77s3-19,4-24,3-25,5-25,1,11,2,21-5,28-4,37S136,185,137,195Z"/><path class="cls-3" d="M111,168c2,7,1.13,31.09,4.06,37.54a277.81,277.81,0,0,1-23.8-27.67c.19-.58,6.8-20.94,10.74-25.87s2-9,4-14-1-10,0-20,5,0,5,9c0,5.9-.86,18.69-.89,28.77C110.1,161.05,110.31,165.59,111,168Z"/><ellipse class="cls-10" cx="273" cy="69" rx="8" ry="14" transform="translate(-8.57 72.15) rotate(-14.82)"/><path class="cls-11" d="M296,312.43c2-1.55,3.11-3.23,3.11-5,0-7.28-18.62-13.18-41.59-13.18s-41.59,5.9-41.59,13.18c0,1.77,1.11,3.45,3.11,5,6.22-4.8,21.1-8.18,38.48-8.18S289.77,307.63,296,312.43Z"/><ellipse class="cls-12" cx="257.51" cy="312.43" rx="38.48" ry="8.18"/><path class="cls-11" d="M119.65,325.88A4.17,4.17,0,0,0,121,323c0-4.21-8.08-7.62-18-7.62s-18,3.41-18,7.62a4.17,4.17,0,0,0,1.35,2.89c2.7-2.78,9.15-4.73,16.69-4.73S117,323.1,119.65,325.88Z"/><ellipse class="cls-12" cx="102.96" cy="325.88" rx="16.69" ry="4.73"/><path class="cls-11" d="M142.14,343.58a2.68,2.68,0,0,0,.86-1.85c0-2.69-5.17-4.87-11.54-4.87s-11.54,2.18-11.54,4.87a2.68,2.68,0,0,0,.86,1.85c1.73-1.77,5.86-3,10.68-3S140.41,341.81,142.14,343.58Z"/><ellipse class="cls-12" cx="131.46" cy="343.58" rx="10.68" ry="3.02"/><ellipse class="cls-10" cx="323.84" cy="75.26" rx="6.16" ry="4.74" transform="translate(178.89 374.47) rotate(-77.24)"/><ellipse class="cls-10" cx="277.29" cy="37.6" rx="3.69" ry="3.61" transform="translate(179.35 299.73) rotate(-77.24)"/><ellipse class="cls-13" cx="240.29" cy="97.6" rx="3.69" ry="3.61" transform="translate(92.01 310.39) rotate(-77.24)"/><ellipse class="cls-13" cx="234.02" cy="81.54" rx="1.96" ry="1.92" transform="translate(102.79 291.76) rotate(-77.24)"/><path class="cls-14" d="M379,169.91c-19.35,6.72-32.43,17.6-58.38,19.09-34.9,2-33.74-12-69.8-16s-40.71-3-61.65,0-44.21,14-73.29,13-38.39-20-68.64-12c-18,4.76-35.21.76-46.23-3.26l3.86-23.46C16.59,143.78,39,138.5,57.66,142c26.76,5,41.63,21.23,70.84,22.61s43.17,8.39,72.25.39,50-19,73.29-16,31.41,12,52.35,13c16.11.77,33.19-2,50.18-8.13Z"/><path class="cls-15" d="M379,210.32c-12.26,3.46-33.51,8-51.43,4.73-27-5-42-21.23-71.48-22.62s-43.57-8.38-72.93-.38-50.48,19-74,16-31.7-12-52.84-13c-17.87-.85-36.91,2.6-55.72,10L0,188.2c21.39-6.56,34.57-18.59,62.18-20.15,35.23-2,34.05,12,70.45,16s41.09,3,62.22,0,44.62-14,74-13,38.75,20,69.27,12c15.74-4.13,30.91-1.67,41.91,1.67Z"/></g></g></svg>