<svg xmlns="http://www.w3.org/2000/svg" xmlns:xlink="http://www.w3.org/1999/xlink" viewBox="0 0 380 380"><defs><style>.cls-1{fill:#275d86;}.cls-2{fill:url(#linear-gradient);}.cls-3{fill:#415896;}.cls-4{fill:url(#New_Gradient_Swatch_2);}.cls-5{fill:#506cb8;}.cls-6{fill:url(#Sky_2);}.cls-7{fill:url(#New_Gradient_Swatch_2-2);}.cls-8{fill:url(#Sky_2-2);}.cls-9{fill:#5e758c;}.cls-10{fill:#6984a1;}.cls-11{fill:#736b91;}.cls-12{fill:#c9bdff;}.cls-13{fill:url(#New_Gradient_Swatch_2-3);}.cls-14{fill:url(#New_Gradient_Swatch_2-4);}.cls-15{fill:#96a9bd;}.cls-16{fill:url(#New_Gradient_Swatch_2-5);}.cls-17{fill:#d4efff;}.cls-18{fill:url(#New_Gradient_Swatch_2-6);}.cls-19{fill:#c3ced9;}.cls-20{fill:#f2faff;}.cls-21{fill:url(#New_Gradient_Swatch_2-7);}.cls-22{fill:url(#New_Gradient_Swatch_2-8);}.cls-23{fill:url(#Sky_2-3);}.cls-24{fill:url(#Sky_2-4);}.cls-25{fill:url(#Sky_2-5);}.cls-26{fill:url(#Sky_2-6);}.cls-27{fill:url(#Sky_2-7);}.cls-28{fill:url(#Sky_2-8);}.cls-29{fill:url(#Sky_2-9);}.cls-30{fill:#3f5180;}.cls-31{fill:url(#Sky_2-10);}.cls-32{fill:url(#New_Gradient_Swatch_2-9);}.cls-33{fill:url(#New_Gradient_Swatch_2-10);}.cls-34{fill:#4e5b9c;}.cls-35{fill:url(#Sky_2-11);}.cls-36{opacity:0.44;}.cls-37{fill:#5564b6;}.cls-38{fill:#2b385d;}.cls-39{fill:#3b497e;}.cls-40{fill:#234c92;}.cls-41{fill:url(#New_Gradient_Swatch_3);}.cls-42{fill:url(#New_Gradient_Swatch_3-2);}.cls-43{fill:url(#New_Gradient_Swatch_3-3);}.cls-44{fill:url(#New_Gradient_Swatch_3-4);}.cls-45{fill:url(#New_Gradient_Swatch_3-5);}.cls-46{fill:url(#New_Gradient_Swatch_3-6);}.cls-47{fill:url(#New_Gradient_Swatch_3-7);}.cls-48{fill:#6677d9;}.cls-49{fill:#3c4d80;}.cls-50{fill:#4c5da1;}.cls-51{fill:#2b5eb5;}.cls-52{fill:url(#New_Gradient_Swatch_2-11);}.cls-53{fill:url(#New_Gradient_Swatch_2-12);}.cls-54{fill:url(#New_Gradient_Swatch_2-13);}.cls-55{fill:url(#New_Gradient_Swatch_2-14);}.cls-56{fill:url(#New_Gradient_Swatch_2-15);}.cls-57{fill:url(#New_Gradient_Swatch_2-16);}.cls-58{fill:#5765ab;}.cls-59{fill:url(#Sky_2-12);}</style><linearGradient id="linear-gradient" x1="222.5" y1="295.37" x2="222.5" y2="253.89" gradientUnits="userSpaceOnUse"><stop offset="0" stop-color="#14679d"/><stop offset="0.15" stop-color="#196ca0"/><stop offset="0.34" stop-color="#287caa"/><stop offset="0.55" stop-color="#4196b9"/><stop offset="0.77" stop-color="#64bace"/><stop offset="1" stop-color="#8ee6e8"/></linearGradient><linearGradient id="New_Gradient_Swatch_2" x1="155.54" y1="376.89" x2="221.54" y2="2.6" gradientUnits="userSpaceOnUse"><stop offset="0" stop-color="#50b5b6"/><stop offset="0.61" stop-color="#005a95"/><stop offset="1" stop-color="#003380"/></linearGradient><linearGradient id="Sky_2" x1="277.6" y1="398.41" x2="343.59" y2="24.12" gradientUnits="userSpaceOnUse"><stop offset="0" stop-color="#edfaff"/><stop offset="0.06" stop-color="#e4f6fd"/><stop offset="0.15" stop-color="#caeaf8"/><stop offset="0.27" stop-color="#a1d7f0"/><stop offset="0.41" stop-color="#67bde5"/><stop offset="0.57" stop-color="#1e9cd7"/><stop offset="0.87" stop-color="#0075be"/><stop offset="0.99" stop-color="#005b97"/></linearGradient><linearGradient id="New_Gradient_Swatch_2-2" x1="271.67" y1="397.36" x2="337.67" y2="23.07" xlink:href="#New_Gradient_Swatch_2"/><linearGradient id="Sky_2-2" x1="259.83" y1="395.28" x2="325.83" y2="20.99" xlink:href="#Sky_2"/><linearGradient id="New_Gradient_Swatch_2-3" x1="310.97" y1="404.29" x2="376.96" y2="30" xlink:href="#New_Gradient_Swatch_2"/><linearGradient id="New_Gradient_Swatch_2-4" x1="306.68" y1="403.54" x2="372.67" y2="29.25" xlink:href="#New_Gradient_Swatch_2"/><linearGradient id="New_Gradient_Swatch_2-5" x1="301.95" y1="402.7" x2="367.95" y2="28.41" xlink:href="#New_Gradient_Swatch_2"/><linearGradient id="New_Gradient_Swatch_2-6" x1="299.9" y1="402.34" x2="365.9" y2="28.05" xlink:href="#New_Gradient_Swatch_2"/><linearGradient id="New_Gradient_Swatch_2-7" x1="250.16" y1="393.57" x2="316.15" y2="19.28" xlink:href="#New_Gradient_Swatch_2"/><linearGradient id="New_Gradient_Swatch_2-8" x1="235.46" y1="390.98" x2="301.46" y2="16.69" xlink:href="#New_Gradient_Swatch_2"/><linearGradient id="Sky_2-3" x1="191.9" y1="383.3" x2="257.9" y2="9.01" xlink:href="#Sky_2"/><linearGradient id="Sky_2-4" x1="188.99" y1="382.79" x2="254.99" y2="8.5" xlink:href="#Sky_2"/><linearGradient id="Sky_2-5" x1="220.45" y1="388.33" x2="286.45" y2="14.04" xlink:href="#Sky_2"/><linearGradient id="Sky_2-6" x1="118.58" y1="370.37" x2="184.57" y2="-3.92" xlink:href="#Sky_2"/><linearGradient id="Sky_2-7" x1="146.96" y1="375.37" x2="212.96" y2="1.08" xlink:href="#Sky_2"/><linearGradient id="Sky_2-8" x1="95.05" y1="366.22" x2="161.05" y2="-8.07" xlink:href="#Sky_2"/><linearGradient id="Sky_2-9" x1="122.74" y1="371.1" x2="188.74" y2="-3.19" xlink:href="#Sky_2"/><linearGradient id="Sky_2-10" x1="98.36" y1="366.8" x2="164.35" y2="-7.49" xlink:href="#Sky_2"/><linearGradient id="New_Gradient_Swatch_2-9" x1="67.66" y1="361.39" x2="133.66" y2="-12.9" xlink:href="#New_Gradient_Swatch_2"/><linearGradient id="New_Gradient_Swatch_2-10" x1="63.63" y1="360.68" x2="129.63" y2="-13.61" xlink:href="#New_Gradient_Swatch_2"/><linearGradient id="Sky_2-11" x1="32.84" y1="355.25" x2="98.84" y2="-19.04" xlink:href="#Sky_2"/><linearGradient id="New_Gradient_Swatch_3" x1="237.48" y1="391.02" x2="303.48" y2="16.73" gradientUnits="userSpaceOnUse"><stop offset="0" stop-color="#419293"/><stop offset="0.61" stop-color="#004572"/><stop offset="1" stop-color="#00255d"/></linearGradient><linearGradient id="New_Gradient_Swatch_3-2" x1="163.27" y1="377.94" x2="229.27" y2="3.65" xlink:href="#New_Gradient_Swatch_3"/><linearGradient id="New_Gradient_Swatch_3-3" x1="107.4" y1="368.09" x2="173.4" y2="-6.2" xlink:href="#New_Gradient_Swatch_3"/><linearGradient id="New_Gradient_Swatch_3-4" x1="67.9" y1="361.12" x2="133.89" y2="-13.17" xlink:href="#New_Gradient_Swatch_3"/><linearGradient id="New_Gradient_Swatch_3-5" x1="68.19" y1="361.17" x2="134.18" y2="-13.12" xlink:href="#New_Gradient_Swatch_3"/><linearGradient id="New_Gradient_Swatch_3-6" x1="38.42" y1="355.92" x2="104.41" y2="-18.37" xlink:href="#New_Gradient_Swatch_3"/><linearGradient id="New_Gradient_Swatch_3-7" x1="-2.46" y1="348.71" x2="63.54" y2="-25.57" xlink:href="#New_Gradient_Swatch_3"/><linearGradient id="New_Gradient_Swatch_2-11" x1="235.48" y1="390.98" x2="301.48" y2="16.69" xlink:href="#New_Gradient_Swatch_2"/><linearGradient id="New_Gradient_Swatch_2-12" x1="161.27" y1="377.9" x2="227.27" y2="3.61" xlink:href="#New_Gradient_Swatch_2"/><linearGradient id="New_Gradient_Swatch_2-13" x1="105.4" y1="368.05" x2="171.4" y2="-6.24" xlink:href="#New_Gradient_Swatch_2"/><linearGradient id="New_Gradient_Swatch_2-14" x1="65.9" y1="361.08" x2="131.89" y2="-13.21" xlink:href="#New_Gradient_Swatch_2"/><linearGradient id="New_Gradient_Swatch_2-15" x1="66.19" y1="361.13" x2="132.18" y2="-13.16" xlink:href="#New_Gradient_Swatch_2"/><linearGradient id="New_Gradient_Swatch_2-16" x1="36.42" y1="355.88" x2="102.41" y2="-18.41" xlink:href="#New_Gradient_Swatch_2"/><linearGradient id="Sky_2-12" x1="250.72" y1="393.67" x2="316.71" y2="19.38" xlink:href="#Sky_2"/></defs><title>neptune</title><g id="Layer_2" data-name="Layer 2"><g id="Layer_2-2" data-name="Layer 2"><path class="cls-1" d="M299.94,311l4.38,9.25-14.53-.83L288.55,314a62.3,62.3,0,0,0,6.25-2.13,1.66,1.66,0,0,1,.38-.11Z"/><path class="cls-1" d="M300.47,294.51l-4.37,8.39,3.84,8.09-4.76.76a1.66,1.66,0,0,0-.38.11,62.3,62.3,0,0,1-6.25,2.13l-5.19-22.73,7.79,1.06.16,0c1.87.4,3.73.83,5.6,1.28Z"/><path class="cls-1" d="M304.5,237.5c-22.66.71-54.36-2.6-82.65-3.87a316.1,316.1,0,0,0-32.35-.13c-8.25.5-16.75,1.13-25.38,1.75h0c-12.9.94-26.08,1.87-39.12,2.39s-26.08.61-38.49-.14c-8.76-.53-18.74-1.7-28.67-3.12l-5.14,17.16L61,245.26,74.49,256.9l-8.2,77.31q5.8,5,12,9.48L75.5,308.5l18-16,18,20L99,356.84A189.21,189.21,0,0,0,190,380q6.81,0,13.5-.48V359.13l13-23.63,22-19,33.66,1.91-.64-2-1.24-3.75-1.57-4.77-.88-2.65-3-9.22-1-3-1.45-4.37L261,284.6l7.47-11.15,11.9,4.75,3,13.06,7.79,1.06.16,0c1.87.4,3.73.83,5.6,1.28l3.56.88,8.47-16.28,27.65,14.17,1.5,16.64a189.28,189.28,0,0,0,37.12-76.5C374.24,232.62,317.42,237.09,304.5,237.5ZM129.43,352.58l-14-.17-1.93-6,3.06-5,15,.18.87,11Zm55.9-4.57-4.08-.31-1.84-5-.41,4.39-2.55.07-2.55.08-2.1-4.65,3.45-2.85,3.37.81L177,336.18l5-6.16,7.19,3.34.25,15Z"/><path class="cls-2" d="M344,271.76C344,262.5,292.05,255,228,255h-.32c-11.28-.71-23.8-1.11-37-1.11-49.51,0-89.65,5.61-89.65,12.53a3.15,3.15,0,0,0,1.61,2.37c2,1.5,2.76,3.69,1.78,5.71a6.27,6.27,0,0,0-.66,2.74c0,10,26.08,18.13,58.25,18.13a169.21,169.21,0,0,0,27.33-2.12,9,9,0,0,1,2.48-.07,265.5,265.5,0,0,0,28.89,1.5c24.31,0,45.41-3,56-7.31a8.61,8.61,0,0,1,2.55-.57C317.6,284.07,344,278.36,344,271.76Z"/><path class="cls-1" d="M37.25,303l8.59-28.64-.45,38.88Q41.15,308.26,37.25,303Z"/><path class="cls-1" d="M38.54,231.32,27.2,288A188.69,188.69,0,0,1,3.13,224.5S18.88,227.94,38.54,231.32Z"/><path class="cls-3" d="M380,189.5v.5a189.84,189.84,0,0,1-4.79,42.54c-1,.08-57.79,4.55-70.71,5-22.66.71-54.36-2.6-82.65-3.87,0,0,7.65-7.13,11.65-7.13s6-24,7-24,22,4,35,5,11-6,23-8,35,0,47,0c7.26,0,18.17-3.66,25.66-6.54,4.9-1.9,8.34-3.46,8.34-3.46Z"/><path class="cls-4" d="M380,189.5h-.5s-3.44,1.56-8.34,3.46h0s-13.66-3.45-21.66-4.45-26,0-37,0-33-5-35-5-11,9-16,12-21,7-21,7c-1,0-3,24-7,24s-11.65,7.13-11.65,7.13a316.1,316.1,0,0,0-32.35-.13c-8.25.5-16.75,1.13-25.38,1.75h0c-7.38-.26-13.61-7.75-23.61-10.75s-18-9-27-14-18.25-22.37-18.25-22.37h0c.16-1.59.26-3.14.26-4.63,0-8-5-13-8-18s-10-12-15-11A18.57,18.57,0,0,0,64,158.93a32.39,32.39,0,0,0-3.52-6.43c-9-13-8-23-11-24-1.56-.52-7.44,1.66-13.72,4.58a5.16,5.16,0,0,0,.75-2.59,5.07,5.07,0,0,0-1.34-3.6C33,123,30,125,28,127a4.93,4.93,0,0,0-1.5,3.55,5,5,0,0,0,4.41,5,88.86,88.86,0,0,0-10.41,6c-4.74,3.39-12.47,8.73-17,11.82a188.34,188.34,0,0,1,11-36.42,7.62,7.62,0,0,0,5.16.13,7.89,7.89,0,0,0,5.07-4.71,2.79,2.79,0,0,0-1-3.52c-1.57-.92-3.7-1.86-4.74-1.84h0q3.24-6.67,7-13c1.69,2.23,5.31,3.4,8.69,3A9.87,9.87,0,0,0,38,96c0-1-1-3-.71-3.74a10.25,10.25,0,0,0-3.76-3.38c-1.09.48-2.44-.34-3.71-1.12A189.84,189.84,0,0,1,186.51,0L97.79,82c-4.18.25-8.4,1.19-6.79,6a1.07,1.07,0,0,0,.07.19l-6.21,5.74a3.54,3.54,0,0,0-1.62-2.35c-2.11-1.76-3.69-2.15-5-1.86A7.22,7.22,0,0,0,75,92a6.38,6.38,0,0,0,0,6,4.28,4.28,0,0,0,4.3,1L61.5,115.5l31.64-25c3.62,1.73,10-1.74,10.41-6.35a3.22,3.22,0,0,0-.85-1.2L206.87.74q7.29.64,14.41,1.82L115.67,100.11l-.79-.86a8.92,8.92,0,0,0-.15-4.73c1.27-1.08,1.26-2.75,1.21-4.14a9.81,9.81,0,0,0-1.52-4.19A3.94,3.94,0,0,0,111,83c-3.33,1.33-3.56,6.23-1.55,9.34-3.1,3.81-2.44,10.57,1.13,12.47l-5.08,4.69,5.63-4.44c.34.12.46,0,.48-.39L236.83,5.82a187.68,187.68,0,0,1,34.5,12.43l-63.25,59.6A6.14,6.14,0,0,0,204,78c-1.54,1.54-2.49,3.68-1.92,5.5l-20.79,19.58a10.24,10.24,0,0,0-4.11.43,12.4,12.4,0,0,0-4.17,2.16c-1.91,3.55-1.78,5.17-.87,6l-15.4,14.5c-3.05-2.16-8.84-1.72-9.74,2.79a4.37,4.37,0,0,0,1.72,4.77L123,158l21.35-17.2a4,4,0,0,0-.61,3.2,16,16,0,0,0,1.26,3c3,2,10,2,10.58-3.58a4.32,4.32,0,0,0-2-3.45A10,10,0,0,0,150.4,138a8.25,8.25,0,0,0-3.44.69l4.42-3.56a9,9,0,0,0,1.31.33,8.12,8.12,0,0,0,3.47,0A5.83,5.83,0,0,0,159,134c1-1,1-3,1.14-3.6a5.3,5.3,0,0,0-.8-1.66l17.86-14.39a1.88,1.88,0,0,1,.17.67c1,.15,1.63-.42,2.12-1.33a15.4,15.4,0,0,0,.78-1.8l31.27-25.18A8,8,0,0,0,214,85a2.11,2.11,0,0,0,0-.26l72.55-58.42a190.52,190.52,0,0,1,44.28,36.12l-44.18,40.12-20.07,18.22,0-.41a3.75,3.75,0,0,0-1.49-3.32c-4-2-10-1-10,4a4.74,4.74,0,0,0,5,5l1.09-.26L176,203l89.25-69.26,1.16,1.5c-1.62,1.26-.76,5.42-3.41,4.76,0,1,0,3,1,4a4.24,4.24,0,0,0,5.12.66,5.5,5.5,0,0,0,1.13-.77l1.71,1.85L236.5,178.5l48.67-38.42c1.58.61,3.14-1.2,4-3.13l14.48-11.44A3.73,3.73,0,0,0,304,127a5.51,5.51,0,0,0,5.76,1.06c2.24-1.06,3.24-3.06,4.1-5a5.25,5.25,0,0,0-1.26-3.94l-.47-.36,13.77-10.88A9.81,9.81,0,0,0,331,112c5,0,6-3,5.74-4.63a6.7,6.7,0,0,0-1.8-4.11c-.66-.4-1.27-.74-1.84-1l17.49-13.81a185.78,185.78,0,0,1,12.34,22.78A5,5,0,0,0,362,119a16.89,16.89,0,0,0,5.22,2.29A189.31,189.31,0,0,1,380,189.5ZM365,135c3,0,2-4,4.23-6.37A6.23,6.23,0,0,0,366.8,125c-5.8-1-8.8,1-8.8,5C358,135,363,134,365,135Zm-13.55-9c0-2-1.14-5,1.19-5a5.91,5.91,0,0,0-1.58-3.93C349,116,346,115,344,116c-4,4-2,7-.08,8.87a42.7,42.7,0,0,0,4,2.26C350.93,128.44,351.49,127.5,351.45,126Zm.95,15.69a11.05,11.05,0,0,0,.78-4.17,7.18,7.18,0,0,0-1.57-4.41c-5.81-3.56-6.71-2.58-6.78-.72S345.5,137,343,137c1,3,2,7,5,7C350.5,144,351.75,143,352.4,141.69Zm-11.25,3.08a7.2,7.2,0,0,0-1.51-4.19C338,139,335,136,332,138c-7,6,3,10,8,10A13.49,13.49,0,0,0,341.15,144.77Zm-12.85-11a5.79,5.79,0,0,0-1.58-4c-2.72-.8-6.72-1.8-9.41,1.51A4.28,4.28,0,0,0,317,137a5.11,5.11,0,0,0,2.71,1.91,5.67,5.67,0,0,0,3.21,0,10.08,10.08,0,0,0,3-2A13.7,13.7,0,0,0,328.3,133.82Zm-.35,15a5.31,5.31,0,0,0-1.95-3.66,10.91,10.91,0,0,0-3.56-1.19c-3.88-.56-8.19.56-7.44,5.06a7.06,7.06,0,0,0,6.49,4.82,6.28,6.28,0,0,0,3.89-1.21A6.9,6.9,0,0,0,328,148.79Zm-19.37-10.48a3.47,3.47,0,0,0-.61-3.5C304,131,297,133,296,138,296,145,307,143,308.58,138.31ZM265,101c5,3,13,2,12.88-4.8a8.93,8.93,0,0,0-3.82-3.89C270,89,266,92,264,95,263,97,264,100,265,101Zm.36,6.15a5.68,5.68,0,0,0-3-3.18,7.74,7.74,0,0,0-5.19-1,7.55,7.55,0,0,0-4.17,2,4.3,4.3,0,0,0,0,4.62,7.64,7.64,0,0,0,3,2.38,7.06,7.06,0,0,0,5.3-.6A11.58,11.58,0,0,0,265.36,107.15ZM243,102c2,0,4-2,4.09-4.85a5.81,5.81,0,0,0-1.47-3.66C244,92,242,91,240,92s1,2,1,4c-1,0-1-1-2-1C239,98,240,101,243,102Zm-.15,27.65a3.76,3.76,0,0,0-1.69-3.4C238,125,235,124,233,127a4.84,4.84,0,0,0,0,7C239,137,241,133,242.85,129.65Zm-11-24.45a4.67,4.67,0,0,0-.12-3.71A23.47,23.47,0,0,1,228,99c-3,3-7,5-5,10,1,1,2,2,3,2C229,110,232,109,231.87,105.2Zm-4,14.73a6.62,6.62,0,0,0-.53-4.07C221,113,215,121,219,124S226,124,227.87,119.93ZM212.5,125.5a4.89,4.89,0,0,0-1.29-3.52,9.25,9.25,0,0,0-3.69-.74A8.51,8.51,0,0,0,204,122c-2,4-1,9,4,9C211,130,212,128,212.5,125.5Zm-2.42,31.76a3.52,3.52,0,0,0-.65-3C204,151,203,155,201,158a3.67,3.67,0,0,0,1,3C205,164,210,161,210.08,157.26ZM198.91,115a7.73,7.73,0,0,0-.71-4.41C196,109,194,106,191,109c-1,1-1,3-1.2,4.53A4.91,4.91,0,0,0,191,117c1.75,2,2.94,2.94,3.78,3.2a1.33,1.33,0,0,0,1.71-.82C197.22,118,197.44,115.51,198.91,115Zm-4.72-27a4.91,4.91,0,0,0-1.88-2.89C190,84,187,83,185,85a4.81,4.81,0,0,0,2,6C192,93,193,90,194.19,88ZM192,146a19.76,19.76,0,0,1,.32-4.22,8.88,8.88,0,0,0-2.43-4.06C188,135,186,135,184,137,181,141,187,150,192,146Zm-3.41-20.49a6.12,6.12,0,0,0-1.38-3.8,3.54,3.54,0,0,0-2.78-1.74c-3-.17-6.18,3.74-5.42,5.88a4.37,4.37,0,0,0,2,3.17C184,131,188,130,188.59,125.51ZM167.08,99.79a3.8,3.8,0,0,0-1.74-3.2C163,96,162,94,160,94c-5,2-2,9,2,11C165,106,166,102,167.08,99.79Zm-1.94-9.06a7.44,7.44,0,0,0,1.44-3.33A5.2,5.2,0,0,0,165,84,5,5,0,0,0,158,84a4.8,4.8,0,0,0-1.42,3.5C156,92,162,93,165.14,90.73ZM148,107c9,4,5-2,6.17-3a6.29,6.29,0,0,0-1.2-3.64c-2-1.32-4-2.32-5-.32S146,106,148,107Zm-3.65,12.43a5.55,5.55,0,0,0-.1-4.16,18.92,18.92,0,0,0-6.1-1.11C134,115,131,118,132,122c2,4,7,4,10.53,1.55A4,4,0,0,0,144.35,119.43Zm-4.49-22c1.45-.52,2.27-1.59,1.4-3.74a6.12,6.12,0,0,0-2.68-2.88c-1.29-.91-3.94-1.12-5.88-.52-3.7,1.69-1.7,7.69,2,7.57A16.93,16.93,0,0,0,139.86,97.45Zm-10.13,5.82a2.84,2.84,0,0,0-1.16-3.28,7,7,0,0,0-3.84-1.06C121,99,117,101,117.66,105.87c1.17,2.57,3,3.1,4.87,2.79a15.4,15.4,0,0,0,5.07-2.25A8.31,8.31,0,0,0,129.73,103.27ZM128,131a39.31,39.31,0,0,0-.31-6,8.16,8.16,0,0,0-2.23-4l-.22-.17a3.7,3.7,0,0,0-.35-1.48,4.84,4.84,0,0,0-1.21-3.9C119,113,112,119,116,124a4.53,4.53,0,0,0,3.14,1.19C121.17,128.09,125.06,130,128,131Zm-18.76,10a2.22,2.22,0,0,0-.88-2.9C104,136,98,137,98,142c0,2,1,4,3,4C104,145,108,145,109.24,141Zm-.24-9a24.57,24.57,0,0,0-.13-3.06,6.56,6.56,0,0,0-3.15-2.09C103,125,96,125,97,130,98,136,106,135,109,132ZM91.68,117.7a10,10,0,0,0-1.49-5.21C89,110,88,108,85,109a3.9,3.9,0,0,0-2.38,2.17C80.94,114.5,81.5,120.5,86,122,88,122,90,120,91.68,117.7Zm.54,14.42a6.47,6.47,0,0,0-1.91-3.52C87,123,86,126,83.82,127A5.75,5.75,0,0,0,82,131c0,3,4.5,4.88,7.69,3.57A4.72,4.72,0,0,0,92.22,132.12Zm-12.54-3.44a3.9,3.9,0,0,0,.68-3.5,8.55,8.55,0,0,0-1.77-3.86c-2.41-1.72-4.22-1.26-5.32.05a5.25,5.25,0,0,0-.89,5.25A7.21,7.21,0,0,0,77,130,3.52,3.52,0,0,0,79.68,128.68Zm-7.19,8.62a4.55,4.55,0,0,0-.75-3.73C64,129,64,135,62,137c-1,2,1,6,4,6C70,143,71,140,72.49,137.3ZM64.54,98.5a3.64,3.64,0,0,0-.9-3.15C60,95,56,94,55,99c0,1,0,3,1,4C60,106,65,102,64.54,98.5ZM52,118.07a5.71,5.71,0,0,0-.77-3.53A10.9,10.9,0,0,1,48,112c-1,4-8,6-4,10C48,125,51,122,52,118.07ZM50,106c1-1,1-3,.86-4.06a5.94,5.94,0,0,0-1.06-3.42c-2.6-1.38-3.93-1.79-4.52-1.66s-.44.8-.13,1.58C45.77,100,47,102,44,101a8,8,0,0,0,2.62,4.38A3.2,3.2,0,0,0,50,106Zm-7.65.75a3.49,3.49,0,0,0-.66-3.49C40,103,38,101,37,101c-4,1-10,5-6,10C34,114,40,111,42.35,106.75Z"/><path class="cls-5" d="M371.16,193h0c-7.49,2.88-18.4,6.54-25.66,6.54-12,0-35-2-47,0s-10,9-23,8-34-5-35-5c0,0,16-4,21-7s14-12,16-12,24,5,35,5,29-1,37,0S371.16,193,371.16,193Z"/><path class="cls-6" d="M350.59,88.43,333.1,102.24c-5.47-2.67-7.19,0-8.1,2.76a5.58,5.58,0,0,0,.9,2.92L312.13,118.8A3.7,3.7,0,0,0,309,118l-.19-.87c2.46-.49,4-4.85,3.57-6.81a6.78,6.78,0,0,0-.29-1.72L344.22,79Q347.55,83.62,350.59,88.43Z"/><path class="cls-7" d="M344.22,79l-32.09,29.63a3.85,3.85,0,0,0-.95-1.68,7.53,7.53,0,0,0-1.53-1,5.46,5.46,0,0,0-.36-1.87,4.11,4.11,0,0,0-1.06-3.07,6.47,6.47,0,0,0-.71-.11l5.83-4.53c2.94,3.22,6.72-1.5,8.5-3.79a2.41,2.41,0,0,0-.67-2.28l20-15.49C342.19,76.22,343.21,77.61,344.22,79Z"/><path class="cls-8" d="M341.14,74.85l-20,15.49-.2-.18C317,87,311,92,313,96a2.8,2.8,0,0,0,.35.41l-5.83,4.53a4.82,4.82,0,0,0-4.74,1.69,5.34,5.34,0,0,0-1,2.77L294,111.47l-7.52,5.83c.25-.35.45-.63.58-.83a5.29,5.29,0,0,0,1-3.57,5.5,5.5,0,0,0-.69-.34l.12-1.4A4.29,4.29,0,0,0,289,111a6.24,6.24,0,0,0,4.17-4,4.13,4.13,0,0,0-.71-3.25C291,103,290,102,289,102a5.16,5.16,0,0,0-1.89,1.09l-.48-.53,44.18-40.12Q336.24,68.43,341.14,74.85Z"/><path class="cls-9" d="M336.59,292.4l1.5,16.64q-2.71,3.38-5.59,6.62l-2.38-20.79Z"/><polygon class="cls-10" points="336.59 292.4 330.12 294.87 308.94 278.23 336.59 292.4"/><path class="cls-11" d="M330.12,294.87l2.38,20.79c-1.75,2-3.55,3.95-5.39,5.87l-4.73-.27-4.29-14.82c.62-.21,1.23-.44,1.85-.67a.6.6,0,0,1,.19-.06q2.76-.66,5.51-1.48h.05a1.83,1.83,0,0,0,0-3.52l-.2-.05q-2.9-.81-5.8-1.5l-.53-.12Z"/><path class="cls-12" d="M330.12,294.87l-11,4.16-3.59-.82-6.59-20Z"/><polygon class="cls-11" points="327.11 321.53 327.07 321.57 323.44 324.95 322.38 321.26 327.11 321.53"/><path class="cls-13" d="M323.44,325l3.63-3.38q-1.76,1.83-3.56,3.61Z"/><path class="cls-11" d="M325.65,300.7a1.83,1.83,0,0,1,0,3.52h-.05q-2.75.82-5.51,1.48a.6.6,0,0,0-.19.06c-.62.23-1.23.46-1.85.67l-1.18-4.06-.74-2.23,2.95-1.12.53.12q2.91.69,5.8,1.5Z"/><path class="cls-14" d="M323.44,325l.07.23q-3.43,3.4-7.05,6.61l-.11-.24Z"/><polygon class="cls-11" points="322.38 321.26 323.44 324.95 316.35 331.55 311.47 320.64 322.38 321.26"/><path class="cls-15" d="M318.09,306.44l4.29,14.82-10.91-.62-4.88-10.91A96.54,96.54,0,0,0,318.09,306.44Z"/><path class="cls-12" d="M319.12,299l-2.95,1.12-.64-1.94Z"/><path class="cls-15" d="M316.91,302.38l1.18,4.06a96.54,96.54,0,0,1-11.5,3.29l-3.2-7.14,12.78-2.44Z"/><path class="cls-16" d="M316.35,331.55l.11.24q-2.32,2.08-4.72,4.08h0Z"/><polygon class="cls-11" points="311.47 320.64 316.35 331.55 311.73 335.86 304.32 320.24 311.47 320.64"/><path class="cls-17" d="M315.53,298.21l.64,1.94-12.78,2.44,1.59-7Q310.25,297,315.53,298.21Z"/><path class="cls-17" d="M308.94,278.23l6.59,20Q310.25,297,305,295.62Z"/><path class="cls-18" d="M311.74,335.87l-.28.24.27-.25Z"/><path class="cls-11" d="M304.32,320.24l7.41,15.62-.27.25q-7.32,6.09-15.23,11.44l-6.44-28.14Z"/><path class="cls-19" d="M306.59,309.73l4.88,10.91-7.15-.4L299.94,311l1.35-.22C303.06,310.47,304.83,310.13,306.59,309.73Z"/><path class="cls-20" d="M308.94,278.23l-4,17.39-4.51-1.11Z"/><path class="cls-19" d="M303.39,302.59l3.2,7.14c-1.76.4-3.53.74-5.3,1l-1.35.22-3.84-8.09Z"/><path class="cls-21" d="M305.22,115l-6.6,6.11-.24-.26c1.17-1.1-1.5-5.77,2.65-5.32a5.45,5.45,0,0,0-.35-3.46c-2.3-.68-4.33-.55-5.77.62l-1-1.24,7.82-6.07A7.77,7.77,0,0,0,302,108a23.75,23.75,0,0,0,2.77,2.46A5.45,5.45,0,0,0,305.22,115Z"/><path class="cls-20" d="M305,295.62l-1.59,7-7.29.31,4.37-8.39Z"/><path class="cls-22" d="M298.38,120.87l.24.26-11.43,10.55a4.29,4.29,0,0,0-1,.29,6.6,6.6,0,0,0-3.4,3.8l-10.8,10-1.71-1.85a5.07,5.07,0,0,0,1.77-3.57,6.2,6.2,0,0,0-.42-3.71c-2.13-1.39-3.5-1.82-4.4-1.69a1.61,1.61,0,0,0-.79.32l-1.16-1.5,14.94-11.59c2,.61,4.89-3,6.24-4.85l7.52-5.83,1,1.24A6,6,0,0,0,293,116c0,2,2,4,4,5C297.7,121.18,298.13,121.1,298.38,120.87Z"/><path class="cls-11" d="M289.79,319.41l6.44,28.14q-3.09,2.08-6.26,4.05l-9.1-32.69Z"/><path class="cls-11" d="M280.87,318.91,290,351.6c-1.19.74-2.38,1.46-3.59,2.17l-3-1.39-11.22-34Z"/><path class="cls-9" d="M288.55,314l1.24,5.42-8.92-.5-.87-3.15A61,61,0,0,0,288.55,314Z"/><path class="cls-9" d="M283.36,291.26,288.55,314a61,61,0,0,1-8.55,1.77l-6-21.45-1.24-4.45c1.88.23,3.77.47,5.64.72Z"/><path class="cls-23" d="M287.45,111.16l-.12,1.4c-4.94-2-11.19,3.67-8.33,8.44a2,2,0,0,0,1.19,1.15l-14.94,11.59L176,203l85.09-77.26c3.33-.75,5.7-1.15,5.47-5l20.07-18.22.48.53A7.85,7.85,0,0,0,285,109,2.65,2.65,0,0,0,287.45,111.16Z"/><path class="cls-24" d="M286.53,26.32,214,84.74c-.15-.91-1-1.79-.92-2.29A7.6,7.6,0,0,0,211,78.8a20,20,0,0,0-2.92-1l63.25-59.6Q279.13,21.94,286.53,26.32Z"/><path class="cls-11" d="M283.38,352.38l3,1.39q-2.49,1.47-5,2.86l-41.56-5.09-23.3-16,22-19,33.66,1.91Z"/><path class="cls-25" d="M285,140l.17.08L236.5,178.5,272,145.74l10.8-10C282.1,137.67,282.54,139.59,285,140Z"/><path class="cls-9" d="M280.37,278.2l3,13.06-4.93-.68c-1.87-.25-3.76-.49-5.64-.72l-1.49-5.36Z"/><path class="cls-9" d="M239.8,351.54l41.56,5.09a188.73,188.73,0,0,1-77.86,22.89V359.13l36.71-7.31Z"/><path class="cls-15" d="M280,315.76l.87,3.15-8.71-.5-.64-2h.1c1.43-.07,2.81-.14,4.18-.25l1.64-.14C278.29,316,279.15,315.88,280,315.76Z"/><polygon class="cls-10" points="280.37 278.2 271.3 284.5 268.47 273.45 280.37 278.2"/><path class="cls-15" d="M274,294.31l6,21.45c-.85.12-1.71.22-2.56.3l-1.64.14a10.15,10.15,0,0,0-5.52-3.49l-1.57-4.77a11.49,11.49,0,0,0,3.79-1.44c1.16-.78-1.13-1.1-4.67-1.21l-3-9.22a26.66,26.66,0,0,0,6.71-.57c.86-.29,1.21-.56,1.13-.8Z"/><path class="cls-15" d="M272.79,289.86l1.24,4.45-1.4.39c-.23-.7-3.87-1.23-8.82-1.6l-1.45-4.37c3.25.27,6.48.61,9.69,1Z"/><path class="cls-15" d="M275.8,316.2c-1.37.11-2.75.18-4.18.25h-.1l-1.24-3.75A10.15,10.15,0,0,1,275.8,316.2Z"/><path class="cls-15" d="M271.3,284.5l1.49,5.36-.74-.09c-3.21-.43-6.44-.77-9.69-1L261,284.6Z"/><path class="cls-15" d="M272.63,294.7c.08.24-.27.51-1.13.8a26.66,26.66,0,0,1-6.71.57l-1-3C268.76,293.47,272.4,294,272.63,294.7Z"/><path class="cls-15" d="M267.83,305.29c3.54.11,5.83.43,4.67,1.21a11.49,11.49,0,0,1-3.79,1.44Z"/><polygon class="cls-17" points="268.47 273.45 271.3 284.5 261 284.6 268.47 273.45"/><polygon class="cls-17" points="239.8 351.54 240.21 351.82 203.5 359.13 216.5 335.5 239.8 351.54"/><path class="cls-26" d="M236.83,5.82,111.61,104.67a5.51,5.51,0,0,0,0-.79l4.08-3.77L221.28,2.56Q229.17,3.87,236.83,5.82Z"/><path class="cls-27" d="M211.54,86.71l-31.27,25.18c.61-1.64,1.25-3.5,2.64-4.43a5,5,0,0,0-1-4.29,5.4,5.4,0,0,0-.6-.09L202.08,83.5A3.56,3.56,0,0,0,203,85C206,87.24,209,87.81,211.54,86.71Z"/><path class="cls-28" d="M206.87.74,102.7,83a5,5,0,0,0-1.94-1.09c-.93,0-2,0-3,.1L186.51,0c1.16,0,2.32,0,3.49,0Q198.54,0,206.87.74Z"/><polygon class="cls-10" points="189.16 333.36 189.41 348.32 185.33 348.01 183.62 337.14 189.16 333.36"/><polygon class="cls-20" points="189.16 333.36 183.62 337.14 176.98 336.18 181.97 330.02 189.16 333.36"/><polygon class="cls-19" points="183.62 337.14 185.33 348.01 181.25 347.7 179.41 342.74 179.59 340.83 178.62 340.59 176.98 336.18 183.62 337.14"/><polygon class="cls-19" points="179.59 340.83 179.41 342.74 178.85 341.21 179.59 340.83"/><polygon class="cls-19" points="179.59 340.83 178.85 341.21 178.62 340.59 179.59 340.83"/><polygon class="cls-10" points="179.41 342.74 179 347.13 176.45 347.2 175.92 342.71 178.85 341.21 179.41 342.74"/><polygon class="cls-20" points="178.85 341.21 175.92 342.71 171.8 342.63 175.25 339.78 178.62 340.59 178.85 341.21"/><path class="cls-29" d="M177.2,114.35l-17.86,14.39a7.28,7.28,0,0,0-1.71-1.75,5.13,5.13,0,0,0-.89-.78l15.4-14.5C173.46,113,176.44,112.63,177.2,114.35Z"/><polygon class="cls-19" points="176.45 347.2 173.9 347.28 171.8 342.63 175.92 342.71 176.45 347.2"/><path class="cls-30" d="M140.5,224.5c10,3,16.23,10.49,23.61,10.75-12.9.94-26.08,1.87-39.12,2.39-4.07-.88-13.38-3.09-19.49-6.14-5-7-7-16-10-23-2.44-5.7-.91-13.39-.26-20.37h0s9.25,17.37,18.25,22.37S130.5,221.5,140.5,224.5Z"/><path class="cls-31" d="M151.38,135.15,147,138.71a6,6,0,0,0-2.61,2.09L123,158l25.72-24.23A8.55,8.55,0,0,0,151.38,135.15Z"/><polygon class="cls-10" points="126.51 346.54 131.56 341.6 132.43 352.61 129.43 352.58 126.51 346.54"/><polygon class="cls-19" points="131.56 341.6 126.51 346.54 113.51 346.39 116.57 341.42 131.56 341.6"/><polygon class="cls-15" points="126.51 346.54 129.43 352.58 115.44 352.41 113.51 346.39 126.51 346.54"/><path class="cls-32" d="M114.88,99.25l.79.86-4.08,3.77C111.43,102.12,111,99.08,114.88,99.25Z"/><polygon class="cls-10" points="93.5 292.5 111.5 312.5 105.5 312.5 93.5 292.5"/><path class="cls-9" d="M111.5,312.5,99,356.84q-2.14-1.17-4.25-2.39L105.5,312.5Z"/><path class="cls-33" d="M111.13,105.06l-5.63,4.44,5.08-4.69.42.19Z"/><polygon class="cls-12" points="93.5 292.5 105.5 312.5 92.59 312.47 93.5 292.5"/><path class="cls-11" d="M105.5,312.5,94.77,354.45c-1.79-1.05-3.57-2.11-5.32-3.21l3-36.74.09-2Z"/><path class="cls-34" d="M95.5,208.5c3,7,5,16,10,23-8-4-12-5-18-16s-16-23-20-33c-3.29-8.22.18-14.41-3.48-23.57a18.57,18.57,0,0,1,8.48-4.43c5-1,12,6,15,11s8,10,8,18c0,1.49-.1,3-.26,4.63C94.59,195.11,93.06,202.8,95.5,208.5Z"/><polygon class="cls-17" points="93.5 292.5 92.59 312.47 81.5 310.5 93.5 292.5"/><polygon class="cls-20" points="93.5 292.5 81.5 310.5 75.5 308.5 93.5 292.5"/><path class="cls-35" d="M93.14,90.52l-31.64,25L79.3,99.05a6.52,6.52,0,0,0,1.08-.36,10,10,0,0,0,4.52-4.14,3.18,3.18,0,0,0,0-.62l6.21-5.74A4,4,0,0,0,93.14,90.52Z"/><path class="cls-15" d="M92.59,312.47l-.09,2-3,36.74q-3-1.86-5.87-3.82L81.5,310.5Z"/><path class="cls-19" d="M81.5,310.5l2.08,36.92c-1.79-1.21-3.55-2.45-5.3-3.73L75.5,308.5Z"/><path class="cls-9" d="M74.49,256.9l-8.2,77.31q-5.37-4.6-10.38-9.6l3.76-63.5Z"/><polygon class="cls-10" points="74.49 256.9 59.67 261.11 60.95 245.26 74.49 256.9"/><polygon class="cls-17" points="60.95 245.26 59.67 261.11 50.71 258.13 52.69 251.54 60.95 245.26"/><polygon class="cls-10" points="52.5 215.5 60.5 225.5 49.5 226.5 52.5 215.5"/><path class="cls-9" d="M60.5,225.5l-2.67,8.88c-3.33-.48-6.65-1-9.92-1.51l1.59-6.37Z"/><path class="cls-15" d="M59.67,261.11l-3.76,63.5q-5.49-5.48-10.52-11.37l.45-38.88,4.87-16.23Z"/><path class="cls-9" d="M57.83,234.38l-5.14,17.16-6.64,5-.21,17.78L37.25,303q-2.62-3.54-5.08-7.19l15.74-62.94C51.18,233.4,54.5,233.9,57.83,234.38Z"/><polygon class="cls-17" points="52.69 251.54 50.71 258.13 46.05 256.58 52.69 251.54"/><polygon class="cls-17" points="52.5 215.5 49.5 226.5 40.5 221.5 52.5 215.5"/><polygon class="cls-15" points="50.71 258.13 45.84 274.36 46.05 256.58 50.71 258.13"/><path class="cls-15" d="M49.5,226.5l-1.59,6.37c-3.19-.5-6.33-1-9.37-1.55l2-9.82Z"/><path class="cls-15" d="M47.91,232.87,32.17,295.81q-2.58-3.84-5-7.81l11.34-56.68C41.58,231.85,44.72,232.37,47.91,232.87Z"/><g class="cls-36"><path class="cls-37" d="M370.36,130c-1.14,2.3-.85,5.09-3.36,5.09-2-1-7,0-7-5,0-4,2.93-6,8.61-5"/><path class="cls-37" d="M366.92,120.62a31.13,31.13,0,0,1-2.94-1.54,5,5,0,0,1-.46-6.57"/><path class="cls-38" d="M354.64,121.05c-2.33,0-1.23,3-1.19,5,0,1.5-.52,2.44-3.54,1.13a42.7,42.7,0,0,1-4-2.26C344,123,342,120,346,116c2-1,5,0,7.06,1.08A5.91,5.91,0,0,1,354.64,121.05Z"/><path class="cls-39" d="M355.18,137.56a11.05,11.05,0,0,1-.78,4.17c-.65,1.31-1.9,2.31-4.4,2.31-3,0-4-4-5-7,2.5,0,1.75-2.75,1.83-4.61s1-2.84,6.78.72A7.18,7.18,0,0,1,355.18,137.56Z"/><path class="cls-40" d="M341.64,140.62a7.2,7.2,0,0,1,1.51,4.19A13.49,13.49,0,0,1,342,148c-5,0-15-4-8-10C337,136,340,139,341.64,140.62Z"/><path class="cls-39" d="M338.74,107.41C339,109,338,112,333,112a9.81,9.81,0,0,1-5.1-4.08l7.2-5.68c.57.28,1.18.62,1.84,1A6.7,6.7,0,0,1,338.74,107.41Z"/><path class="cls-39" d="M335.1,102.28,327.9,108A5.58,5.58,0,0,1,327,105C327.91,102.32,329.63,99.61,335.1,102.28Z"/><path class="cls-40" d="M328.72,129.84a5.79,5.79,0,0,1,1.58,4,13.7,13.7,0,0,1-2.4,3,10.08,10.08,0,0,1-3,2,5.67,5.67,0,0,1-3.21,0A5.11,5.11,0,0,1,319,137a4.28,4.28,0,0,1,.31-5.69C322,128,326,129,328.72,129.84Z"/><path class="cls-38" d="M328,145.17a5.31,5.31,0,0,1,1.95,3.66,6.9,6.9,0,0,1-2.57,3.82,6.28,6.28,0,0,1-3.89,1.21A7.06,7.06,0,0,1,317,149c-.75-4.5,3.56-5.62,7.44-5.06A10.91,10.91,0,0,1,328,145.17Z"/><path class="cls-38" d="M323.18,90.38a2.41,2.41,0,0,1,.67,2.28c-1.78,2.29-5.56,7-8.5,3.79Z"/><path class="cls-38" d="M323.18,90.38l-7.83,6.07A2.8,2.8,0,0,1,315,96c-2-4,4-9,8-5.84Z"/><path class="cls-38" d="M314.6,119.2a5.25,5.25,0,0,1,1.26,3.94c-.86,1.9-1.86,3.9-4.1,5A5.51,5.51,0,0,1,306,127a3.73,3.73,0,0,1-.38-1.49l8.51-6.71Z"/><path class="cls-40" d="M314.42,110.4c.43,2-1.11,6.32-3.57,6.81A3.19,3.19,0,0,1,308,116a4.93,4.93,0,0,1-.78-1l6.91-6.38A6.78,6.78,0,0,1,314.42,110.4Z"/><path class="cls-40" d="M314.13,108.68l-6.91,6.38a5.45,5.45,0,0,1-.46-4.56A2.56,2.56,0,0,0,308,111c2.84-1.42,3.66-3.34,3.65-5a7.53,7.53,0,0,1,1.53,1A3.85,3.85,0,0,1,314.13,108.68Z"/><path class="cls-38" d="M314.13,118.84l-8.51,6.71a5.93,5.93,0,0,1,.25-2A8.72,8.72,0,0,1,308,120a6.74,6.74,0,0,1,3.08-2A3.7,3.7,0,0,1,314.13,118.84Z"/><path class="cls-38" d="M311.65,106c0,1.67-.81,3.59-3.65,5a2.56,2.56,0,0,1-1.24-.54A17,17,0,0,1,309,106C309.63,105.41,310.67,105.58,311.65,106Z"/><path class="cls-38" d="M311.29,104.16a5.46,5.46,0,0,1,.36,1.87c-1-.45-2-.62-2.65,0a17,17,0,0,0-2.24,4.46A23.75,23.75,0,0,1,304,108a7.77,7.77,0,0,1-.22-2.6l5.75-4.46a6.47,6.47,0,0,1,.71.11A4.11,4.11,0,0,1,311.29,104.16Z"/><path class="cls-39" d="M310,134.85a3.47,3.47,0,0,1,.61,3.5C309,143,298,145,298,138,299,133,306,131,310,134.85Z"/><path class="cls-38" d="M309.52,101l-5.75,4.46a5.34,5.34,0,0,1,1-2.77A4.82,4.82,0,0,1,309.52,101Z"/><path class="cls-37" d="M302.68,112.13a5.45,5.45,0,0,1,.35,3.46c-4.15-.45-1.48,4.22-2.65,5.32-.25.23-.68.31-1.38.13-2-1-4-3-4-5a6,6,0,0,1,1.91-3.29C298.35,111.58,300.38,111.45,302.68,112.13Z"/><path class="cls-40" d="M294.48,103.76a4.13,4.13,0,0,1,.71,3.25,6.24,6.24,0,0,1-4.17,4,4.29,4.29,0,0,1-1.57.16A2.65,2.65,0,0,1,287,109a7.85,7.85,0,0,1,2.11-5.9A5.16,5.16,0,0,1,291,102C292,102,293,103,294.48,103.76Z"/><path class="cls-40" d="M291.75,132.35a4.94,4.94,0,0,1-.18,3.33,9.09,9.09,0,0,1-.43,1.31l-4,3.13L287,140c-2.46-.41-2.9-2.33-2.24-4.23l4.43-4.09A3.48,3.48,0,0,1,291.75,132.35Z"/><path class="cls-40" d="M287.17,140.12l4-3.13C290.31,138.92,288.75,140.73,287.17,140.12Z"/><path class="cls-37" d="M290,112.94a5.29,5.29,0,0,1-1,3.57c-.13.2-.33.48-.58.83l-6.24,4.85A2,2,0,0,1,281,121c-2.86-4.77,3.39-10.46,8.33-8.44A5.5,5.5,0,0,1,290,112.94Z"/><path class="cls-40" d="M289.19,131.72l-4.43,4.09a6.6,6.6,0,0,1,3.4-3.8A4.29,4.29,0,0,1,289.19,131.72Z"/><path class="cls-41" d="M282.19,122.19l6.24-4.85C287.08,119.22,284.16,122.8,282.19,122.19Z"/><path class="cls-40" d="M279.88,96.24C280,103,272,104,267,101c-1-1-2-4-1-6,2-3,6-6,10.06-2.69A8.93,8.93,0,0,1,279.88,96.24Z"/><path class="cls-40" d="M273.6,136.65a6.2,6.2,0,0,1,.42,3.71,5.07,5.07,0,0,1-1.77,3.57,5.5,5.5,0,0,1-1.13.77A4.24,4.24,0,0,1,266,144c-1-1-1-3-1-4,2.65.66,1.79-3.5,3.41-4.76a1.61,1.61,0,0,1,.79-.32C270.1,134.83,271.47,135.26,273.6,136.65Z"/><path class="cls-39" d="M268.56,120.82c.23,3.81-2.14,4.21-5.47,5Z"/><path class="cls-39" d="M268.53,120.41l0,.41-5.47,5L262,126a4.74,4.74,0,0,1-5-5c0-5,6-6,10-4A3.75,3.75,0,0,1,268.53,120.41Z"/><path class="cls-39" d="M264.36,104a5.68,5.68,0,0,1,3,3.18,11.58,11.58,0,0,1-4.06,4.25,7.06,7.06,0,0,1-5.3.6,7.64,7.64,0,0,1-3-2.38,4.3,4.3,0,0,1,0-4.62,7.55,7.55,0,0,1,4.17-2A7.74,7.74,0,0,1,264.36,104Z"/><path class="cls-39" d="M249.09,97.19C249,100,247,102,245,102c-3-1-4-4-4-7,1,0,1,1,2,1,0-2-3-3-1-4s4,0,5.62,1.49A5.81,5.81,0,0,1,249.09,97.19Z"/><path class="cls-38" d="M243.16,126.29a3.76,3.76,0,0,1,1.69,3.4C243,133,241,137,235,134a4.84,4.84,0,0,1,0-7C237,124,240,125,243.16,126.29Z"/><path class="cls-40" d="M233.75,101.53a4.67,4.67,0,0,1,.12,3.71C234,109,231,110,228,111c-1,0-2-1-3-2-2-5,2-7,5-10A23.47,23.47,0,0,0,233.75,101.53Z"/><path class="cls-39" d="M229.34,115.9a6.62,6.62,0,0,1,.53,4.07C228,124,225,127,221,124S223,113,229.34,115.9Z"/><path class="cls-42" d="M216,84.78a2.11,2.11,0,0,1,0,.26,8,8,0,0,1-2.46,1.71Z"/><path class="cls-37" d="M216,84.78l-2.44,2C211,87.85,208,87.28,205,85a3.56,3.56,0,0,1-.92-1.5l6-5.65a20,20,0,0,1,2.92,1,7.6,7.6,0,0,1,2.06,3.65C215,83,215.83,83.87,216,84.78Z"/><path class="cls-37" d="M213.21,122a4.89,4.89,0,0,1,1.29,3.52C214,128,213,130,210,131c-5,0-6-5-4-9a8.51,8.51,0,0,1,3.56-.72A9.25,9.25,0,0,1,213.21,122Z"/><path class="cls-39" d="M211.43,154.27a3.52,3.52,0,0,1,.65,3C212,161,207,164,204,161a3.67,3.67,0,0,1-1-3C205,155,206,151,211.43,154.27Z"/><path class="cls-37" d="M210.08,77.89l-6,5.65c-.57-1.82.38-4,1.92-5.5A6.14,6.14,0,0,1,210.08,77.89Z"/><path class="cls-38" d="M200.2,110.67a7.73,7.73,0,0,1,.71,4.41c-1.47.47-1.69,3-2.42,4.34a1.33,1.33,0,0,1-1.71.82c-.84-.26-2-1.2-3.78-3.2a4.91,4.91,0,0,1-1.2-3.47C192,112,192,110,193,109,196,106,198,109,200.2,110.67Z"/><path class="cls-40" d="M194.31,85.15A4.91,4.91,0,0,1,196.19,88C195,90,194,93,189,91a4.81,4.81,0,0,1-2-6C189,83,192,84,194.31,85.15Z"/><path class="cls-37" d="M194.32,141.82A19.76,19.76,0,0,0,194,146c-5,4-11-5-8-9,2-2,4-2,5.89.72A8.88,8.88,0,0,1,194.32,141.82Z"/><path class="cls-40" d="M189.21,121.75a6.12,6.12,0,0,1,1.38,3.8C190,130,186,131,183,129.06a4.37,4.37,0,0,1-2-3.17c-.76-2.14,2.43-6,5.42-5.88A3.54,3.54,0,0,1,189.21,121.75Z"/><path class="cls-39" d="M183.89,103.21a5,5,0,0,1,1,4.29c-1.39.93-2,2.79-2.64,4.43l-3.07,2.46c-.76-1.72-3.74-1.38-5.06-2.64l9.15-8.63A5.4,5.4,0,0,1,183.89,103.21Z"/><path class="cls-39" d="M183.29,103.12l-9.15,8.63c-.91-.87-1-2.49.87-6a12.4,12.4,0,0,1,4.17-2.16A10.24,10.24,0,0,1,183.29,103.12Z"/><path class="cls-39" d="M179.2,114.39l3.07-2.46a15.4,15.4,0,0,1-.78,1.8c-.49.91-1.12,1.48-2.12,1.33A1.88,1.88,0,0,0,179.2,114.39Z"/><path class="cls-37" d="M167.34,96.63a3.8,3.8,0,0,1,1.74,3.2C168,102,167,106,164,105c-4-2-7-9-2-11C164,94,165,96,167.34,96.63Z"/><path class="cls-40" d="M168.58,87.44a7.44,7.44,0,0,1-1.44,3.33C164,93,158,92,158.54,87.5A4.8,4.8,0,0,1,160,84,5,5,0,0,1,167,84,5.2,5.2,0,0,1,168.58,87.44Z"/><path class="cls-38" d="M162.14,130.44C162,131,162,133,161,134a5.83,5.83,0,0,1-2.84,1.5,8.12,8.12,0,0,1-3.47,0,9,9,0,0,1-1.31-.33l8-6.41A5.3,5.3,0,0,1,162.14,130.44Z"/><path class="cls-38" d="M161.34,128.78l-8,6.41a8.55,8.55,0,0,1-2.66-1.38l8-7.56a5.13,5.13,0,0,1,.89.78A7.28,7.28,0,0,1,161.34,128.78Z"/><path class="cls-38" d="M158.74,126.25l-8,7.56A4.37,4.37,0,0,1,149,129C149.9,124.53,155.69,124.09,158.74,126.25Z"/><path class="cls-40" d="M155.58,140a4.32,4.32,0,0,1,2,3.45C157,149,150,149,147,147a16,16,0,0,1-1.26-3,4,4,0,0,1,.61-3.2l2.61-2.09a8.25,8.25,0,0,1,3.44-.69A10,10,0,0,1,155.58,140Z"/><path class="cls-40" d="M156.17,104c-1.17,1,2.83,7-6.17,3-2-1-1-5,0-7s3-1,5,.32A6.29,6.29,0,0,1,156.17,104Z"/><path class="cls-43" d="M149,138.75l-2.61,2.09A6,6,0,0,1,149,138.75Z"/><path class="cls-39" d="M146.25,115.31a5.55,5.55,0,0,1,.1,4.16,4,4,0,0,1-1.82,4.12C141,126,136,126,134,122c-1-4,2-7,6.15-7.84A18.92,18.92,0,0,1,146.25,115.31Z"/><path class="cls-39" d="M143.26,93.75c.87,2.15.05,3.22-1.4,3.74a16.93,16.93,0,0,1-5.13.43C133,98,131,92,134.7,90.35c1.94-.6,4.59-.39,5.88.52A6.12,6.12,0,0,1,143.26,93.75Z"/><path class="cls-40" d="M130.57,100a2.84,2.84,0,0,1,1.16,3.28,8.31,8.31,0,0,1-2.13,3.14,15.4,15.4,0,0,1-5.07,2.25c-1.86.31-3.7-.22-4.87-2.79C119,101,123,99,126.73,99A7,7,0,0,1,130.57,100Z"/><path class="cls-39" d="M129.69,125a39.31,39.31,0,0,1,.31,6c-2.94-1-6.83-2.91-8.86-5.81,2.86.1,6.12-1.71,6.1-4.34l.22.17A8.16,8.16,0,0,1,129.69,125Z"/><path class="cls-39" d="M127.24,120.89c0,2.63-3.24,4.44-6.1,4.34L121,125C120,122.1,123.83,118.21,127.24,120.89Z"/><path class="cls-38" d="M126.89,119.41a3.7,3.7,0,0,1,.35,1.48c-3.41-2.68-7.22,1.21-6.24,4.15l.14.19A4.53,4.53,0,0,1,118,124c-4-5,3-11,7.68-8.53A4.84,4.84,0,0,1,126.89,119.41Z"/><path class="cls-40" d="M117.94,90.42c0,1.39.06,3.06-1.21,4.14a5.71,5.71,0,0,0-.21-.58C116,93,116,90,115,90a7,7,0,0,0-3.55,2.34c-2-3.11-1.78-8,1.55-9.34a3.94,3.94,0,0,1,3.42,3.19A9.81,9.81,0,0,1,117.94,90.42Z"/><path class="cls-39" d="M116.73,94.56a8.92,8.92,0,0,1,.15,4.73c-3.91-.17-3.45,2.87-3.29,4.63l-1,.93c-3.57-1.9-4.23-8.66-1.13-12.47A5.37,5.37,0,0,0,116,95,3.55,3.55,0,0,0,116.73,94.56Z"/><path class="cls-39" d="M116.52,94a5.71,5.71,0,0,1,.21.58A3.55,3.55,0,0,1,116,95a5.37,5.37,0,0,1-4.55-2.66A7,7,0,0,1,115,90C116,90,116,93,116.52,94Z"/><path class="cls-44" d="M113.59,103.92a5.51,5.51,0,0,1,0,.79l-.48.39L113,105l-.42-.19Z"/><path class="cls-45" d="M113.13,105.1l.48-.39C113.59,105.05,113.47,105.22,113.13,105.1Z"/><path class="cls-37" d="M110.36,138.1a2.22,2.22,0,0,1,.88,2.9c-1.24,4-5.24,4-8.24,5-2,0-3-2-3-4C100,137,106,136,110.36,138.1Z"/><path class="cls-38" d="M110.87,129A24.57,24.57,0,0,1,111,132c-3,3-11,4-12-2-1-5,6-5,8.72-3.15A6.56,6.56,0,0,1,110.87,129Z"/><path class="cls-37" d="M104.7,83a3.22,3.22,0,0,1,.85,1.2c-.44,4.61-6.79,8.08-10.41,6.35Z"/><path class="cls-37" d="M104.7,83l-9.56,7.55a4,4,0,0,1-2.07-2.33L99.79,82c1-.06,2-.08,3-.1A5,5,0,0,1,104.7,83Z"/><path class="cls-37" d="M99.79,82l-6.72,6.21A1.07,1.07,0,0,1,93,88C91.39,83.21,95.61,82.27,99.79,82Z"/><path class="cls-37" d="M92.19,112.53a10,10,0,0,1,1.49,5.21C92,120,90,122,88,122c-4.5-1.5-5.06-7.5-3.38-10.83A3.9,3.9,0,0,1,87,109C90,108,91,110,92.19,112.53Z"/><path class="cls-40" d="M92.31,128.64a6.47,6.47,0,0,1,1.91,3.52,4.72,4.72,0,0,1-2.53,2.45C88.5,135.92,84,134,84,131a5.75,5.75,0,0,1,1.82-4C88,126,89,123,92.31,128.64Z"/><path class="cls-46" d="M86.86,94a3.18,3.18,0,0,1,0,.62,10,10,0,0,1-4.52,4.14,6.52,6.52,0,0,1-1.08.36Z"/><path class="cls-39" d="M86.86,94,81.3,99.09A4.28,4.28,0,0,1,77,98a6.38,6.38,0,0,1,0-6,7.22,7.22,0,0,1,3.28-2.28c1.27-.29,2.85.1,5,1.86A3.54,3.54,0,0,1,86.86,94Z"/><path class="cls-38" d="M82.36,125.22a3.9,3.9,0,0,1-.68,3.5A3.52,3.52,0,0,1,79,130a7.21,7.21,0,0,1-4.62-3.38,5.25,5.25,0,0,1,.89-5.25c1.1-1.31,2.91-1.77,5.32,0A8.55,8.55,0,0,1,82.36,125.22Z"/><path class="cls-39" d="M73.74,133.61a4.55,4.55,0,0,1,.75,3.73C73,140,72,143,68,143c-3,0-5-4-4-6C66,135,66,129,73.74,133.61Z"/><path class="cls-40" d="M65.64,95.39a3.64,3.64,0,0,1,.9,3.15C67,102,62,106,58,103c-1-1-1-3-1-4C58,94,62,95,65.64,95.39Z"/><path class="cls-40" d="M53.27,114.58a5.71,5.71,0,0,1,.77,3.53C53,122,50,125,46,122c-4-4,3-6,4-10A10.9,10.9,0,0,0,53.27,114.58Z"/><path class="cls-38" d="M52.86,102C53,103,53,105,52,106a3.2,3.2,0,0,1-3.38-.62A8,8,0,0,1,46,101c3,1,1.77-1,1.15-2.56-.31-.78-.46-1.45.13-1.58s1.92.28,4.52,1.66A5.94,5.94,0,0,1,52.86,102Z"/><path class="cls-39" d="M43.69,103.3a3.49,3.49,0,0,1,.66,3.49C42,111,36,114,33,111c-4-5,2-9,6-10C40,101,42,103,43.69,103.3Z"/><path class="cls-39" d="M39.3,92.3C39.05,93,40,95,40,96a9.87,9.87,0,0,1-3.26.94c-3.38.38-7-.79-8.69-3,1.21-2.08,2.47-4.14,3.77-6.16,1.27.78,2.62,1.6,3.71,1.12A10.25,10.25,0,0,1,39.3,92.3Z"/><path class="cls-38" d="M37.19,126.93a5.07,5.07,0,0,1,1.34,3.6,5.16,5.16,0,0,1-.75,2.59c-1.62.75-3.27,1.56-4.87,2.38a5,5,0,0,1-4.41-5A4.93,4.93,0,0,1,30,127C32,125,35,123,37.19,126.93Z"/><path class="cls-47" d="M37.78,133.12a5.34,5.34,0,0,1-.74,1,5,5,0,0,1-3.54,1.46,3.81,3.81,0,0,1-.59,0C34.51,134.68,36.16,133.87,37.78,133.12Z"/><path class="cls-37" d="M25.83,108.84a2.79,2.79,0,0,1,1,3.52,7.89,7.89,0,0,1-5.07,4.71,7.62,7.62,0,0,1-5.16-.13q2.1-5.06,4.49-9.94h0C22.13,107,24.26,107.92,25.83,108.84Z"/></g><g class="cls-36"><path class="cls-48" d="M369.23,128.63C367,131,368,135,365,135c-2-1-7,0-7-5,0-4,3-6,8.8-5A6.23,6.23,0,0,1,369.23,128.63Z"/><path class="cls-48" d="M362.93,111.21q2.29,5,4.27,10.12A16.89,16.89,0,0,1,362,119a5,5,0,0,1,.95-7.83Z"/><path class="cls-49" d="M352.64,121c-2.33,0-1.23,3-1.19,5,0,1.5-.52,2.44-3.54,1.13a42.7,42.7,0,0,1-4-2.26C342,123,340,120,344,116c2-1,5,0,7.06,1.08A5.91,5.91,0,0,1,352.64,121Z"/><path class="cls-50" d="M353.18,137.52a11.05,11.05,0,0,1-.78,4.17c-.65,1.31-1.9,2.31-4.4,2.31-3,0-4-4-5-7,2.5,0,1.75-2.75,1.83-4.61s1-2.84,6.78.72A7.18,7.18,0,0,1,353.18,137.52Z"/><path class="cls-51" d="M339.64,140.58a7.2,7.2,0,0,1,1.51,4.19A13.49,13.49,0,0,1,340,148c-5,0-15-4-8-10C335,136,338,139,339.64,140.58Z"/><path class="cls-50" d="M336.74,107.37C337,109,336,112,331,112a9.81,9.81,0,0,1-5.1-4.08l7.2-5.68c.57.28,1.18.62,1.84,1A6.7,6.7,0,0,1,336.74,107.37Z"/><path class="cls-50" d="M333.1,102.24l-7.2,5.68A5.58,5.58,0,0,1,325,105C325.91,102.28,327.63,99.57,333.1,102.24Z"/><path class="cls-51" d="M326.72,129.8a5.79,5.79,0,0,1,1.58,4,13.7,13.7,0,0,1-2.4,3,10.08,10.08,0,0,1-3,2,5.67,5.67,0,0,1-3.21,0A5.11,5.11,0,0,1,317,137a4.28,4.28,0,0,1,.31-5.69C320,128,324,129,326.72,129.8Z"/><path class="cls-49" d="M326,145.13a5.31,5.31,0,0,1,1.95,3.66,6.9,6.9,0,0,1-2.57,3.82,6.28,6.28,0,0,1-3.89,1.21A7.06,7.06,0,0,1,315,149c-.75-4.5,3.56-5.62,7.44-5.06A10.91,10.91,0,0,1,326,145.13Z"/><path class="cls-49" d="M321.18,90.34a2.41,2.41,0,0,1,.67,2.28c-1.78,2.29-5.56,7-8.5,3.79Z"/><path class="cls-49" d="M321.18,90.34l-7.83,6.07A2.8,2.8,0,0,1,313,96c-2-4,4-9,8-5.84Z"/><path class="cls-49" d="M312.6,119.16a5.25,5.25,0,0,1,1.26,3.94c-.86,1.9-1.86,3.9-4.1,5A5.51,5.51,0,0,1,304,127a3.73,3.73,0,0,1-.38-1.49l8.51-6.71Z"/><path class="cls-51" d="M312.42,110.36c.43,2-1.11,6.32-3.57,6.81A3.19,3.19,0,0,1,306,116a4.93,4.93,0,0,1-.78-1l6.91-6.38A6.78,6.78,0,0,1,312.42,110.36Z"/><path class="cls-51" d="M312.13,108.64,305.22,115a5.45,5.45,0,0,1-.46-4.56A2.56,2.56,0,0,0,306,111c2.84-1.42,3.66-3.34,3.65-5a7.53,7.53,0,0,1,1.53,1A3.85,3.85,0,0,1,312.13,108.64Z"/><path class="cls-49" d="M312.13,118.8l-8.51,6.71a5.93,5.93,0,0,1,.25-2A8.72,8.72,0,0,1,306,120,6.74,6.74,0,0,1,309,118,3.7,3.7,0,0,1,312.13,118.8Z"/><path class="cls-49" d="M309.65,106c0,1.67-.81,3.59-3.65,5a2.56,2.56,0,0,1-1.24-.54A17,17,0,0,1,307,106C307.63,105.37,308.67,105.54,309.65,106Z"/><path class="cls-49" d="M309.29,104.12a5.46,5.46,0,0,1,.36,1.87c-1-.45-2-.62-2.65,0a17,17,0,0,0-2.24,4.46A23.75,23.75,0,0,1,302,108a7.77,7.77,0,0,1-.22-2.6l5.75-4.46a6.47,6.47,0,0,1,.71.11A4.11,4.11,0,0,1,309.29,104.12Z"/><path class="cls-50" d="M308,134.81a3.47,3.47,0,0,1,.61,3.5C307,143,296,145,296,138,297,133,304,131,308,134.81Z"/><path class="cls-49" d="M307.52,100.94l-5.75,4.46a5.34,5.34,0,0,1,1-2.77A4.82,4.82,0,0,1,307.52,100.94Z"/><path class="cls-48" d="M300.68,112.09a5.45,5.45,0,0,1,.35,3.46c-4.15-.45-1.48,4.22-2.65,5.32-.25.23-.68.31-1.38.13-2-1-4-3-4-5a6,6,0,0,1,1.91-3.29C296.35,111.54,298.38,111.41,300.68,112.09Z"/><path class="cls-51" d="M292.48,103.72a4.13,4.13,0,0,1,.71,3.25,6.24,6.24,0,0,1-4.17,4,4.29,4.29,0,0,1-1.57.16A2.65,2.65,0,0,1,285,109a7.85,7.85,0,0,1,2.11-5.9A5.16,5.16,0,0,1,289,102C290,102,291,103,292.48,103.72Z"/><path class="cls-51" d="M289.75,132.31a4.94,4.94,0,0,1-.18,3.33,9.09,9.09,0,0,1-.43,1.31l-4,3.13L285,140c-2.46-.41-2.9-2.33-2.24-4.23l4.43-4.09A3.48,3.48,0,0,1,289.75,132.31Z"/><path class="cls-51" d="M285.17,140.08l4-3.13C288.31,138.88,286.75,140.69,285.17,140.08Z"/><path class="cls-48" d="M288,112.9a5.29,5.29,0,0,1-1,3.57c-.13.2-.33.48-.58.83l-6.24,4.85A2,2,0,0,1,279,121c-2.86-4.77,3.39-10.46,8.33-8.44A5.5,5.5,0,0,1,288,112.9Z"/><path class="cls-51" d="M287.19,131.68l-4.43,4.09a6.6,6.6,0,0,1,3.4-3.8A4.29,4.29,0,0,1,287.19,131.68Z"/><path class="cls-52" d="M280.19,122.15l6.24-4.85C285.08,119.18,282.16,122.76,280.19,122.15Z"/><path class="cls-51" d="M277.88,96.2C278,103,270,104,265,101c-1-1-2-4-1-6,2-3,6-6,10.06-2.69A8.93,8.93,0,0,1,277.88,96.2Z"/><path class="cls-51" d="M271.6,136.61a6.2,6.2,0,0,1,.42,3.71,5.07,5.07,0,0,1-1.77,3.57,5.5,5.5,0,0,1-1.13.77A4.24,4.24,0,0,1,264,144c-1-1-1-3-1-4,2.65.66,1.79-3.5,3.41-4.76a1.61,1.61,0,0,1,.79-.32C268.1,134.79,269.47,135.22,271.6,136.61Z"/><path class="cls-50" d="M266.56,120.78c.23,3.81-2.14,4.21-5.47,5Z"/><path class="cls-50" d="M266.53,120.37l0,.41-5.47,5L260,126a4.74,4.74,0,0,1-5-5c0-5,6-6,10-4A3.75,3.75,0,0,1,266.53,120.37Z"/><path class="cls-50" d="M262.36,104a5.68,5.68,0,0,1,3,3.18,11.58,11.58,0,0,1-4.06,4.25,7.06,7.06,0,0,1-5.3.6,7.64,7.64,0,0,1-3-2.38,4.3,4.3,0,0,1,0-4.62,7.55,7.55,0,0,1,4.17-2A7.74,7.74,0,0,1,262.36,104Z"/><path class="cls-50" d="M247.09,97.15C247,100,245,102,243,102c-3-1-4-4-4-7,1,0,1,1,2,1,0-2-3-3-1-4s4,0,5.62,1.49A5.81,5.81,0,0,1,247.09,97.15Z"/><path class="cls-49" d="M241.16,126.25a3.76,3.76,0,0,1,1.69,3.4C241,133,239,137,233,134a4.84,4.84,0,0,1,0-7C235,124,238,125,241.16,126.25Z"/><path class="cls-51" d="M231.75,101.49a4.67,4.67,0,0,1,.12,3.71C232,109,229,110,226,111c-1,0-2-1-3-2-2-5,2-7,5-10A23.47,23.47,0,0,0,231.75,101.49Z"/><path class="cls-50" d="M227.34,115.86a6.62,6.62,0,0,1,.53,4.07C226,124,223,127,219,124S221,113,227.34,115.86Z"/><path class="cls-53" d="M214,84.74a2.11,2.11,0,0,1,0,.26,8,8,0,0,1-2.46,1.71Z"/><path class="cls-48" d="M214,84.74l-2.44,2C209,87.81,206,87.24,203,85a3.56,3.56,0,0,1-.92-1.5l6-5.65a20,20,0,0,1,2.92,1,7.6,7.6,0,0,1,2.06,3.65C213,83,213.83,83.83,214,84.74Z"/><path class="cls-48" d="M211.21,122a4.89,4.89,0,0,1,1.29,3.52C212,128,211,130,208,131c-5,0-6-5-4-9a8.51,8.51,0,0,1,3.56-.72A9.25,9.25,0,0,1,211.21,122Z"/><path class="cls-50" d="M209.43,154.23a3.52,3.52,0,0,1,.65,3C210,161,205,164,202,161a3.67,3.67,0,0,1-1-3C203,155,204,151,209.43,154.23Z"/><path class="cls-48" d="M208.08,77.85l-6,5.65c-.57-1.82.38-4,1.92-5.5A6.14,6.14,0,0,1,208.08,77.85Z"/><path class="cls-49" d="M198.2,110.63a7.73,7.73,0,0,1,.71,4.41c-1.47.47-1.69,3-2.42,4.34a1.33,1.33,0,0,1-1.71.82c-.84-.26-2-1.2-3.78-3.2a4.91,4.91,0,0,1-1.2-3.47C190,112,190,110,191,109,194,106,196,109,198.2,110.63Z"/><path class="cls-51" d="M192.31,85.11A4.91,4.91,0,0,1,194.19,88C193,90,192,93,187,91a4.81,4.81,0,0,1-2-6C187,83,190,84,192.31,85.11Z"/><path class="cls-48" d="M192.32,141.78A19.76,19.76,0,0,0,192,146c-5,4-11-5-8-9,2-2,4-2,5.89.72A8.88,8.88,0,0,1,192.32,141.78Z"/><path class="cls-51" d="M187.21,121.71a6.12,6.12,0,0,1,1.38,3.8C188,130,184,131,181,129a4.37,4.37,0,0,1-2-3.17c-.76-2.14,2.43-6,5.42-5.88A3.54,3.54,0,0,1,187.21,121.71Z"/><path class="cls-50" d="M181.89,103.17a5,5,0,0,1,1,4.29c-1.39.93-2,2.79-2.64,4.43l-3.07,2.46c-.76-1.72-3.74-1.38-5.06-2.64l9.15-8.63A5.4,5.4,0,0,1,181.89,103.17Z"/><path class="cls-50" d="M181.29,103.08l-9.15,8.63c-.91-.87-1-2.49.87-6a12.4,12.4,0,0,1,4.17-2.16A10.24,10.24,0,0,1,181.29,103.08Z"/><path class="cls-50" d="M177.2,114.35l3.07-2.46a15.4,15.4,0,0,1-.78,1.8c-.49.91-1.12,1.48-2.12,1.33A1.88,1.88,0,0,0,177.2,114.35Z"/><path class="cls-48" d="M165.34,96.59a3.8,3.8,0,0,1,1.74,3.2C166,102,165,106,162,105c-4-2-7-9-2-11C162,94,163,96,165.34,96.59Z"/><path class="cls-51" d="M166.58,87.4a7.44,7.44,0,0,1-1.44,3.33C162,93,156,92,156.54,87.46A4.8,4.8,0,0,1,158,84,5,5,0,0,1,165,84,5.2,5.2,0,0,1,166.58,87.4Z"/><path class="cls-49" d="M160.14,130.4C160,131,160,133,159,134a5.83,5.83,0,0,1-2.84,1.5,8.12,8.12,0,0,1-3.47,0,9,9,0,0,1-1.31-.33l8-6.41A5.3,5.3,0,0,1,160.14,130.4Z"/><path class="cls-49" d="M159.34,128.74l-8,6.41a8.55,8.55,0,0,1-2.66-1.38l8-7.56a5.13,5.13,0,0,1,.89.78A7.28,7.28,0,0,1,159.34,128.74Z"/><path class="cls-49" d="M156.74,126.21l-8,7.56A4.37,4.37,0,0,1,147,129C147.9,124.49,153.69,124.05,156.74,126.21Z"/><path class="cls-51" d="M153.58,140a4.32,4.32,0,0,1,2,3.45C155,149,148,149,145,147a16,16,0,0,1-1.26-3,4,4,0,0,1,.61-3.2l2.61-2.09a8.25,8.25,0,0,1,3.44-.69A10,10,0,0,1,153.58,140Z"/><path class="cls-51" d="M154.17,104c-1.17,1,2.83,7-6.17,3-2-1-1-5,0-7s3-1,5,.32A6.29,6.29,0,0,1,154.17,104Z"/><path class="cls-54" d="M147,138.71l-2.61,2.09A6,6,0,0,1,147,138.71Z"/><path class="cls-50" d="M144.25,115.27a5.55,5.55,0,0,1,.1,4.16,4,4,0,0,1-1.82,4.12C139,126,134,126,132,122c-1-4,2-7,6.15-7.84A18.92,18.92,0,0,1,144.25,115.27Z"/><path class="cls-50" d="M141.26,93.71c.87,2.15.05,3.22-1.4,3.74a16.93,16.93,0,0,1-5.13.43C131,98,129,92,132.7,90.31c1.94-.6,4.59-.39,5.88.52A6.12,6.12,0,0,1,141.26,93.71Z"/><path class="cls-51" d="M128.57,100a2.84,2.84,0,0,1,1.16,3.28,8.31,8.31,0,0,1-2.13,3.14,15.4,15.4,0,0,1-5.07,2.25c-1.86.31-3.7-.22-4.87-2.79C117,101,121,99,124.73,98.93A7,7,0,0,1,128.57,100Z"/><path class="cls-50" d="M127.69,125a39.31,39.31,0,0,1,.31,6c-2.94-1-6.83-2.91-8.86-5.81,2.86.1,6.12-1.71,6.1-4.34l.22.17A8.16,8.16,0,0,1,127.69,125Z"/><path class="cls-50" d="M125.24,120.85c0,2.63-3.24,4.44-6.1,4.34L119,125C118,122.06,121.83,118.17,125.24,120.85Z"/><path class="cls-49" d="M124.89,119.37a3.7,3.7,0,0,1,.35,1.48c-3.41-2.68-7.22,1.21-6.24,4.15l.14.19A4.53,4.53,0,0,1,116,124c-4-5,3-11,7.68-8.53A4.84,4.84,0,0,1,124.89,119.37Z"/><path class="cls-51" d="M115.94,90.38c0,1.39.06,3.06-1.21,4.14a5.71,5.71,0,0,0-.21-.58C114,93,114,90,113,90a7,7,0,0,0-3.55,2.34c-2-3.11-1.78-8,1.55-9.34a3.94,3.94,0,0,1,3.42,3.19A9.81,9.81,0,0,1,115.94,90.38Z"/><path class="cls-50" d="M114.73,94.52a8.92,8.92,0,0,1,.15,4.73c-3.91-.17-3.45,2.87-3.29,4.63l-1,.93c-3.57-1.9-4.23-8.66-1.13-12.47A5.37,5.37,0,0,0,114,95,3.55,3.55,0,0,0,114.73,94.52Z"/><path class="cls-50" d="M114.52,93.94a5.71,5.71,0,0,1,.21.58A3.55,3.55,0,0,1,114,95a5.37,5.37,0,0,1-4.55-2.66A7,7,0,0,1,113,90C114,90,114,93,114.52,93.94Z"/><path class="cls-55" d="M111.59,103.88a5.51,5.51,0,0,1,0,.79l-.48.39L111,105l-.42-.19Z"/><path class="cls-56" d="M111.13,105.06l.48-.39C111.59,105,111.47,105.18,111.13,105.06Z"/><path class="cls-48" d="M108.36,138.06a2.22,2.22,0,0,1,.88,2.9c-1.24,4-5.24,4-8.24,5-2,0-3-2-3-4C98,137,104,136,108.36,138.06Z"/><path class="cls-49" d="M108.87,128.94A24.57,24.57,0,0,1,109,132c-3,3-11,4-12-2-1-5,6-5,8.72-3.15A6.56,6.56,0,0,1,108.87,128.94Z"/><path class="cls-48" d="M102.7,83a3.22,3.22,0,0,1,.85,1.2c-.44,4.61-6.79,8.08-10.41,6.35Z"/><path class="cls-48" d="M102.7,83l-9.56,7.55a4,4,0,0,1-2.07-2.33L97.79,82c1-.06,2-.08,3-.1A5,5,0,0,1,102.7,83Z"/><path class="cls-48" d="M97.79,82l-6.72,6.21A1.07,1.07,0,0,1,91,88C89.39,83.17,93.61,82.23,97.79,82Z"/><path class="cls-48" d="M90.19,112.49a10,10,0,0,1,1.49,5.21C90,120,88,122,86,122c-4.5-1.5-5.06-7.5-3.38-10.83A3.9,3.9,0,0,1,85,109C88,108,89,110,90.19,112.49Z"/><path class="cls-51" d="M90.31,128.6a6.47,6.47,0,0,1,1.91,3.52,4.72,4.72,0,0,1-2.53,2.45C86.5,135.88,82,134,82,131a5.75,5.75,0,0,1,1.82-4C86,126,87,123,90.31,128.6Z"/><path class="cls-57" d="M84.86,93.93a3.18,3.18,0,0,1,0,.62,10,10,0,0,1-4.52,4.14,6.52,6.52,0,0,1-1.08.36Z"/><path class="cls-50" d="M84.86,93.93,79.3,99.05A4.28,4.28,0,0,1,75,98a6.38,6.38,0,0,1,0-6,7.22,7.22,0,0,1,3.28-2.28c1.27-.29,2.85.1,5,1.86A3.54,3.54,0,0,1,84.86,93.93Z"/><path class="cls-49" d="M80.36,125.18a3.9,3.9,0,0,1-.68,3.5A3.52,3.52,0,0,1,77,130a7.21,7.21,0,0,1-4.62-3.38,5.25,5.25,0,0,1,.89-5.25c1.1-1.31,2.91-1.77,5.32-.05A8.55,8.55,0,0,1,80.36,125.18Z"/><path class="cls-50" d="M71.74,133.57a4.55,4.55,0,0,1,.75,3.73C71,140,70,143,66,143c-3,0-5-4-4-6C64,135,64,129,71.74,133.57Z"/><path class="cls-51" d="M63.64,95.35a3.64,3.64,0,0,1,.9,3.15C65,102,60,106,56,103c-1-1-1-3-1-4C56,94,60,95,63.64,95.35Z"/><path class="cls-51" d="M51.27,114.54a5.71,5.71,0,0,1,.77,3.53C51,122,48,125,44,122c-4-4,3-6,4-10A10.9,10.9,0,0,0,51.27,114.54Z"/><path class="cls-49" d="M50.86,101.94C51,103,51,105,50,106a3.2,3.2,0,0,1-3.38-.62A8,8,0,0,1,44,101c3,1,1.77-1,1.15-2.56-.31-.78-.46-1.45.13-1.58s1.92.28,4.52,1.66A5.94,5.94,0,0,1,50.86,101.94Z"/><path class="cls-50" d="M41.69,103.26a3.49,3.49,0,0,1,.66,3.49C40,111,34,114,31,111c-4-5,2-9,6-10C38,101,40,103,41.69,103.26Z"/><path class="cls-50" d="M37.3,92.26C37.05,93,38,95,38,96a9.87,9.87,0,0,1-3.26.94c-3.38.38-7-.79-8.69-3,1.21-2.08,2.47-4.14,3.77-6.16,1.27.78,2.62,1.6,3.71,1.12A10.25,10.25,0,0,1,37.3,92.26Z"/><path class="cls-49" d="M35.19,126.89a5.07,5.07,0,0,1,1.34,3.6,5.16,5.16,0,0,1-.75,2.59c-1.62.75-3.27,1.56-4.87,2.38a5,5,0,0,1-4.41-5A4.93,4.93,0,0,1,28,127C30,125,33,123,35.19,126.89Z"/><path class="cls-48" d="M23.83,108.8a2.79,2.79,0,0,1,1,3.52A7.89,7.89,0,0,1,19.74,117a7.62,7.62,0,0,1-5.16-.13q2.1-5.06,4.49-9.94h0C20.13,106.94,22.26,107.88,23.83,108.8Z"/></g><path class="cls-58" d="M35.78,133.08a5.34,5.34,0,0,1-.74,1,5,5,0,0,1-3.54,1.46,3.81,3.81,0,0,1-.59,0C32.51,134.64,34.16,133.83,35.78,133.08Z"/><path class="cls-59" d="M308.85,117.17l.19.87A6.74,6.74,0,0,0,306,120a8.72,8.72,0,0,0-2.09,3.51,5.93,5.93,0,0,0-.25,2L289.14,137a9.09,9.09,0,0,0,.43-1.31,4.94,4.94,0,0,0,.18-3.33,3.48,3.48,0,0,0-2.56-.63l11.43-10.55,6.6-6.11a4.93,4.93,0,0,0,.78,1A3.19,3.19,0,0,0,308.85,117.17Z"/><path class="cls-58" d="M105.5,231.5c6.11,3.05,15.42,5.26,19.49,6.14-13.11.52-26.08.61-38.49-.14-8.76-.53-18.74-1.7-28.67-3.12l2.67-8.88-8-10-12,6-2,9.82c-19.66-3.38-35.41-6.82-35.41-6.82a191.75,191.75,0,0,1,.41-71.18c4.49-3.09,12.22-8.43,17-11.82a88.86,88.86,0,0,1,10.41-6,3.81,3.81,0,0,0,.59,0A5,5,0,0,0,35,134a5.34,5.34,0,0,0,.74-1c6.28-2.92,12.16-5.1,13.72-4.58,3,1,2,11,11,24A32.39,32.39,0,0,1,64,158.93c3.66,9.16.19,15.35,3.48,23.57,4,10,14,22,20,33S97.5,227.5,105.5,231.5Z"/></g></g></svg>